<?xml version="1.0" encoding="UTF-8" standalone="no"?>
<!DOCTYPE svg PUBLIC "-//W3C//DTD SVG 1.1//EN" "http://www.w3.org/Graphics/SVG/1.1/DTD/svg11.dtd" >
<svg xmlns="http://www.w3.org/2000/svg">
<metadata>
This is a SVG font generated by Alphabet Type GmbH.
</metadata>
<defs>
<font id="ASCircularTTLight" horiz-adv-x="538" >
<font-face units-per-em="1000" ascent="953" descent="-277" />
<missing-glyph horiz-adv-x="538" />
<glyph unicode="&#x20;" horiz-adv-x="259" />
<glyph unicode="&#x21;" horiz-adv-x="226" d="M134 189L93 189L75 709L151 709L134 189ZM111 -4C97 -4 85 1 76 11C66 20 61 32 61 45C61 59 66 71 76 81C85 90 97 95 111 95C125 95 137 90 147 81C156 71 161 59 161 45C161 32 156 20 147 11C137 1 125 -4 111 -4Z"/>
<glyph unicode="&#x22;" horiz-adv-x="331" d="M56 673C56 686 60 697 69 705C77 713 87 717 99 717C111 717 121 713 130 705C138 697 142 686 142 673C142 669 142 664 141 658C140 651 139 645 138 640L110 488L87 488L60 640C59 645 58 650 57 657C56 664 56 669 56 673ZM189 673C189 686 193 697 202 705C210 713 220 717 232 717C245 717 255 713 263 705C271 697 275 686 275 673C275 669 275 664 275 658C274 651 273 645 272 640L243 488L221 488L193 640C192 645 191 650 190 657C189 664 189 669 189 673Z"/>
<glyph unicode="&#x23;" horiz-adv-x="724" d="M464 449L290 449L252 257L425 257L464 449ZM416 207L243 207L202 0L147 0L188 207L40 207L40 257L197 257L235 449L89 449L89 498L244 498L286 709L341 709L299 498L472 498L514 709L569 709L527 498L684 498L684 449L518 449L480 257L634 257L634 207L471 207L430 0L375 0L416 207Z"/>
<glyph unicode="&#x24;" horiz-adv-x="555" d="M258 393L258 653C239 651 221 646 204 639C187 632 173 622 161 611C149 599 140 586 133 571C126 556 122 540 122 523C122 458 157 417 228 400L258 393ZM308 321L308 53C354 58 389 73 414 99C438 124 450 154 450 187C450 221 440 249 419 270C398 291 368 307 329 316L308 321ZM258 -113L258 1C224 4 194 11 168 23C141 35 119 50 101 69C82 88 68 109 57 133C46 156 40 181 37 206L91 223C93 203 98 183 106 164C114 145 125 127 139 112C153 96 170 83 190 73C210 62 233 56 258 53L258 333L216 343C171 353 134 373 106 402C77 431 63 470 63 518C63 544 68 568 79 591C89 613 103 632 120 649C137 666 158 679 182 690C205 700 231 706 258 708L258 823L308 823L308 707C337 704 362 698 384 688C406 678 425 666 441 651C457 636 470 618 480 599C490 580 497 560 502 539L448 521C445 536 439 551 432 566C425 581 415 594 404 606C393 618 379 628 363 636C347 644 329 649 308 652L308 382L340 375C393 363 434 342 465 311C495 280 510 240 510 191C510 166 505 142 496 120C486 98 472 79 455 62C438 45 417 31 392 20C367 9 339 3 308 1L308 -113L258 -113Z"/>
<glyph unicode="&#x25;" horiz-adv-x="799" d="M133 0L606 709L665 709L192 0L133 0ZM344 564C344 543 340 523 332 504C323 485 312 469 298 455C284 441 268 430 249 422C230 414 211 410 190 410C169 410 149 414 130 422C111 430 95 441 81 455C67 469 56 485 48 504C40 523 36 543 36 564C36 585 40 605 48 624C56 643 67 659 81 673C95 686 111 697 130 705C149 713 169 717 190 717C211 717 230 713 249 705C268 697 284 686 298 673C312 659 323 643 332 624C340 605 344 585 344 564ZM89 564C89 534 99 509 118 490C137 470 161 460 190 460C204 460 217 463 229 468C241 473 252 481 261 490C270 499 277 510 282 523C287 536 290 549 290 564C290 579 287 592 282 605C277 617 270 628 261 637C252 646 241 654 229 659C217 664 204 667 190 667C161 667 137 657 118 638C99 618 89 593 89 564ZM455 146C455 167 459 187 467 206C475 225 486 241 500 255C514 268 530 279 549 287C568 295 588 299 609 299C630 299 650 295 669 287C688 279 704 268 718 255C732 241 743 225 751 206C759 187 763 167 763 146C763 125 759 105 751 86C743 67 732 51 718 37C704 23 688 12 669 4C650 -4 630 -8 609 -8C588 -8 568 -4 549 4C530 12 514 23 500 37C486 51 475 67 467 86C459 105 455 125 455 146ZM709 146C709 175 700 200 681 220C662 239 638 249 609 249C595 249 582 246 570 241C557 236 547 228 538 219C529 210 522 199 517 187C512 174 509 161 509 146C509 131 512 118 517 105C522 92 529 81 538 72C547 63 557 55 570 50C582 45 595 42 609 42C638 42 662 52 681 72C700 91 709 116 709 146Z"/>
<glyph unicode="&#x26;" horiz-adv-x="662" d="M452 110C420 72 388 42 356 21C323 0 287 -11 246 -11C215 -11 187 -6 164 4C140 14 120 27 103 44C86 60 74 79 66 100C57 121 53 142 53 165C53 187 56 207 62 225C68 243 77 260 88 275C99 290 112 305 127 319C142 333 158 347 176 360L196 375L165 406C147 424 130 446 114 471C98 496 90 524 90 555C90 580 95 602 104 623C113 643 126 660 141 675C156 690 174 701 195 710C216 718 238 722 261 722C286 722 309 718 330 710C351 702 370 691 385 677C400 662 411 645 420 626C429 606 433 584 433 560C433 543 430 528 425 514C419 499 412 486 403 473C394 460 383 449 372 438C360 427 348 417 336 408L283 369L451 196L597 372L597 286L490 156L641 0L557 0L452 110ZM245 407L304 453C325 470 342 487 354 504C365 521 371 541 371 562C371 577 368 591 363 604C358 617 350 628 341 637C331 646 319 654 306 660C293 665 278 668 262 668C230 668 204 658 183 638C162 617 151 591 151 559C151 538 157 518 168 499C179 480 192 463 208 447L245 407ZM248 47C280 47 309 57 336 77C362 97 387 122 412 151L234 334L201 308C178 289 158 269 142 248C125 227 117 201 117 170C117 154 120 139 126 124C132 109 141 95 152 84C163 73 176 64 193 57C209 50 227 47 248 47Z"/>
<glyph unicode="&#x27;" horiz-adv-x="198" d="M56 673C56 686 60 697 69 705C77 713 87 717 99 717C111 717 121 713 130 705C138 697 142 686 142 673C142 669 142 664 141 658C140 651 139 645 138 640L110 488L87 488L60 640C59 645 58 650 57 657C56 664 56 669 56 673Z"/>
<glyph unicode="&#x28;" horiz-adv-x="285" d="M49 317C49 370 54 420 63 465C72 510 85 552 102 591C118 630 137 665 160 698C183 731 207 761 233 789L270 757C219 700 178 636 148 565C117 494 102 411 102 317C102 270 106 226 114 185C122 144 133 105 148 69C163 33 180 -1 201 -33C222 -64 245 -94 270 -123L233 -155C207 -128 183 -98 160 -66C137 -33 118 3 102 42C85 81 72 123 63 169C54 214 49 264 49 317Z"/>
<glyph unicode="&#x29;" horiz-adv-x="285" d="M236 317C236 264 231 214 222 169C213 123 200 81 184 42C167 3 148 -33 125 -66C102 -98 78 -128 52 -155L15 -123C66 -66 106 -2 137 69C168 140 183 223 183 317C183 364 179 408 171 449C163 490 152 529 137 565C122 601 105 635 84 667C63 698 40 728 15 757L52 789C78 761 102 731 125 698C148 665 167 630 184 591C200 552 213 510 222 465C231 420 236 370 236 317Z"/>
<glyph unicode="&#x2a;" horiz-adv-x="459" d="M254 562L393 610L408 564L268 516L359 393L320 363L228 489L140 364L101 394L189 516L50 563L66 610L203 561L203 709L254 709L254 562Z"/>
<glyph unicode="&#x2b;" horiz-adv-x="537" d="M294 373L489 373L489 323L294 323L294 113L241 113L241 323L47 323L47 373L241 373L241 580L294 580L294 373Z"/>
<glyph unicode="&#x2c;" horiz-adv-x="239" d="M63 48C63 61 68 73 79 83C89 93 102 98 117 98C132 98 146 92 158 80C170 68 176 50 176 27C176 2 173 -21 166 -41C159 -60 150 -77 139 -92C128 -107 115 -119 101 -128C86 -137 72 -144 57 -147L57 -110C80 -103 98 -88 111 -67C124 -45 131 -22 132 1C129 -2 122 -4 113 -4C99 -4 87 1 78 11C68 20 63 33 63 48Z"/>
<glyph unicode="&#x2d;" horiz-adv-x="403" d="M70 260L70 314L333 314L333 260L70 260Z"/>
<glyph unicode="&#x2e;" horiz-adv-x="229" d="M62 48C62 63 67 75 77 86C87 96 99 101 114 101C129 101 142 96 152 86C162 75 167 63 167 48C167 33 162 21 152 11C142 1 129 -4 114 -4C99 -4 87 1 77 11C67 21 62 33 62 48Z"/>
<glyph unicode="&#x2f;" horiz-adv-x="465" d="M92 0L32 0L375 709L434 709L92 0Z"/>
<glyph unicode="&#x30;" horiz-adv-x="650" d="M119 354C119 309 123 268 131 230C139 192 151 159 168 131C185 103 206 81 232 66C258 50 289 42 325 42C361 42 392 50 418 66C443 82 465 104 482 132C499 160 511 193 519 231C527 269 531 310 531 354C531 398 527 439 519 478C511 516 499 549 482 577C465 605 443 627 418 643C392 659 361 667 325 667C289 667 258 659 232 643C206 627 185 605 168 577C151 549 139 516 131 478C123 440 119 399 119 354ZM58 354C58 399 63 443 72 487C81 530 95 570 116 605C137 640 164 668 199 690C233 711 275 722 325 722C375 722 417 711 451 690C485 668 513 640 534 605C555 570 570 530 579 487C588 443 592 399 592 354C592 309 588 265 579 222C570 178 555 139 534 104C513 69 485 41 451 20C417 -2 375 -13 325 -13C275 -13 233 -2 199 20C164 41 137 69 116 104C95 139 81 178 72 222C63 265 58 309 58 354Z"/>
<glyph unicode="&#x31;" horiz-adv-x="345" d="M266 0L205 0L205 594C197 583 187 573 174 564C161 554 146 545 130 538C114 530 97 524 80 519C62 514 45 511 28 511L28 563C52 565 74 570 94 579C114 587 132 598 148 611C163 624 176 639 187 656C198 673 205 690 209 709L266 709L266 0Z"/>
<glyph unicode="&#x32;" horiz-adv-x="578" d="M55 0C56 55 72 104 101 146C130 188 173 229 232 269L337 340C371 363 399 389 420 418C441 446 452 478 452 513C452 534 449 553 442 572C435 591 424 607 411 621C397 635 380 646 361 655C341 663 318 667 292 667C266 667 242 663 221 655C200 646 182 634 167 619C152 604 140 585 132 564C124 543 120 519 120 493C120 488 120 482 120 477C120 471 121 465 122 459L60 468C59 473 59 478 59 485C58 491 58 496 58 500C58 531 64 561 76 588C87 615 104 638 125 658C146 678 170 694 199 705C227 716 258 722 292 722C328 722 360 717 388 706C415 695 439 680 458 661C477 642 491 619 501 594C510 569 515 542 515 514C515 475 506 440 488 411C469 381 446 354 418 330C390 305 359 283 326 262C292 241 260 221 229 200C206 184 185 164 166 141C147 118 135 90 130 58L524 58L524 0L55 0Z"/>
<glyph unicode="&#x33;" horiz-adv-x="605" d="M335 418C362 418 389 414 415 405C441 396 464 383 484 366C504 348 520 326 532 300C544 274 550 244 550 209C550 176 544 146 531 119C518 92 501 68 479 49C456 30 430 15 400 4C369 -8 337 -13 302 -13C265 -13 232 -8 202 4C171 15 145 30 123 49C101 68 84 90 71 117C58 143 50 171 48 202L108 216C109 189 116 164 127 143C138 121 152 103 170 88C188 73 208 61 231 54C254 46 278 42 303 42C330 42 354 46 377 55C399 63 418 74 435 89C452 104 465 121 474 141C483 161 488 183 488 207C488 233 483 256 474 276C465 296 452 313 436 326C420 339 402 350 381 357C360 364 337 367 313 367C291 367 269 364 246 358L216 410L454 651L66 651L66 709L535 709L535 651L301 415C313 417 324 418 335 418Z"/>
<glyph unicode="&#x34;" horiz-adv-x="605" d="M31 248L357 709L447 709L447 231L573 231L573 175L447 175L447 0L387 0L387 175L31 175L31 248ZM387 653L89 231L387 231L387 653Z"/>
<glyph unicode="&#x35;" horiz-adv-x="587" d="M98 213C100 188 106 166 116 145C126 124 140 106 157 91C174 76 193 64 216 55C238 46 262 42 288 42C315 42 339 47 362 56C385 65 404 77 421 93C438 108 451 127 460 149C469 170 474 194 474 219C474 246 469 271 460 294C450 316 437 335 421 351C404 366 385 378 362 387C339 396 315 400 289 400C258 400 228 394 201 381C174 368 150 351 129 328L67 353L158 709L510 709L510 652L199 652L132 387C153 410 179 428 209 439C239 450 269 455 300 455C335 455 367 449 396 438C425 427 450 411 471 390C492 369 508 345 520 316C531 287 537 256 537 221C537 189 531 159 519 130C507 101 490 77 469 56C447 35 421 18 390 6C359 -7 325 -13 288 -13C253 -13 220 -8 191 4C162 15 136 30 115 49C93 68 75 90 62 115C49 140 41 166 38 195L98 213Z"/>
<glyph unicode="&#x36;" horiz-adv-x="622" d="M136 224C136 197 141 172 152 149C162 126 176 107 193 91C210 75 229 63 252 54C274 45 297 41 322 41C347 41 371 45 394 54C417 63 437 75 454 91C471 107 484 126 494 149C503 172 508 197 508 224C508 253 503 278 494 301C484 324 471 343 454 359C437 375 418 387 396 396C373 404 349 408 324 408C299 408 275 403 252 394C229 385 209 372 192 356C175 339 161 320 151 297C141 274 136 250 136 224ZM333 463C367 463 399 458 428 447C457 436 482 420 503 399C524 378 541 352 553 323C565 293 571 260 571 223C571 187 564 155 551 126C537 97 519 72 496 51C473 30 446 15 416 4C386 -8 354 -13 321 -13C284 -13 249 -6 217 8C184 22 156 43 133 71C109 99 90 134 77 175C63 216 56 263 56 317C56 384 65 443 84 494C103 545 128 587 159 621C190 654 227 680 269 697C311 714 355 722 401 722C434 722 463 718 489 711C514 704 536 694 553 683L533 630C518 639 500 648 478 655C455 662 429 665 398 665C351 665 310 656 275 637C240 618 211 594 188 563C164 532 146 496 134 455C122 414 116 371 115 327C134 370 162 404 201 428C239 451 283 463 333 463Z"/>
<glyph unicode="&#x37;" horiz-adv-x="543" d="M531 646C498 615 464 579 430 539C395 499 363 453 334 401C304 348 278 289 256 223C233 157 218 83 209 0L145 0C154 89 171 169 197 240C222 311 251 373 283 426C315 479 347 525 380 562C413 599 441 629 465 652L26 652L26 709L531 709L531 646Z"/>
<glyph unicode="&#x38;" horiz-adv-x="606" d="M303 -13C264 -13 230 -8 199 3C168 13 143 27 122 45C101 62 85 83 74 107C63 130 57 156 57 183C57 205 61 226 69 245C76 264 87 282 101 298C114 313 130 327 149 338C167 349 187 357 209 363C190 368 172 376 156 387C139 397 125 409 113 424C101 439 92 455 85 474C78 492 74 511 74 532C74 559 80 585 91 608C102 631 118 651 138 668C158 685 182 698 210 708C238 717 269 722 303 722C336 722 367 717 395 708C423 698 447 685 468 668C488 651 504 631 515 608C526 585 532 559 532 532C532 511 529 492 522 474C515 456 505 440 493 425C481 410 467 398 450 387C433 376 415 368 396 363C418 357 438 349 457 338C475 327 491 313 505 298C518 282 529 264 537 245C544 226 548 205 548 183C548 156 543 130 532 107C521 83 505 62 484 45C463 27 437 13 407 3C376 -8 342 -13 303 -13ZM303 389C328 389 350 393 371 400C391 407 408 416 423 429C438 441 449 456 458 473C466 490 470 509 470 530C470 550 466 569 459 586C451 603 440 617 425 630C410 643 393 653 373 660C352 667 329 670 303 670C277 670 254 667 233 660C212 653 195 643 180 630C165 617 154 603 147 586C139 569 135 550 135 530C135 509 139 490 148 473C156 456 167 441 182 429C197 416 214 407 235 400C256 393 278 389 303 389ZM303 42C332 42 357 46 380 54C402 61 421 72 437 85C452 98 464 113 473 131C481 148 485 167 485 188C485 209 481 228 473 246C465 264 453 280 438 293C422 306 403 317 380 325C357 332 332 336 303 336C274 336 248 332 225 325C202 317 183 306 168 293C152 280 140 264 132 246C124 228 120 209 120 188C120 167 124 148 133 131C141 113 153 98 169 85C184 72 203 61 226 54C249 46 274 42 303 42Z"/>
<glyph unicode="&#x39;" horiz-adv-x="621" d="M501 385C496 365 486 347 473 330C460 313 444 299 425 287C406 275 386 266 363 259C340 252 315 248 289 248C258 248 229 254 200 265C171 276 146 291 124 312C102 332 84 357 71 386C58 415 51 447 51 484C51 519 58 552 72 581C85 610 103 635 126 656C149 677 175 693 205 705C235 716 266 722 299 722C337 722 372 715 405 701C437 686 465 665 489 638C512 610 531 576 544 535C557 494 563 446 563 392C563 258 535 157 479 89C423 21 341 -13 234 -13C206 -13 176 -9 145 -2C114 6 88 17 67 30L90 83C108 72 130 62 157 55C184 47 210 43 235 43C324 43 390 71 434 127C478 183 500 264 501 370L501 385ZM483 485C483 512 478 537 468 560C457 582 444 601 427 617C410 632 390 644 368 653C345 662 322 666 298 666C274 666 251 662 229 653C206 644 187 632 170 617C153 601 139 582 129 560C119 537 114 512 114 485C114 457 119 432 129 410C139 387 152 368 169 353C186 337 205 325 228 317C250 308 273 304 298 304C323 304 346 308 369 317C391 326 411 338 428 354C445 369 458 388 468 411C478 433 483 458 483 485Z"/>
<glyph unicode="&#x3a;" horiz-adv-x="243" d="M69 428C69 443 74 455 84 466C94 476 106 481 121 481C136 481 149 476 159 466C169 455 174 443 174 428C174 413 169 401 159 391C149 381 136 376 121 376C106 376 94 381 84 391C74 401 69 413 69 428ZM69 48C69 63 74 75 84 86C94 96 106 101 121 101C136 101 149 96 159 86C169 75 174 63 174 48C174 33 169 21 159 11C149 1 136 -4 121 -4C106 -4 94 1 84 11C74 21 69 33 69 48Z"/>
<glyph unicode="&#x3b;" horiz-adv-x="243" d="M63 47C63 60 68 72 78 82C88 91 101 96 116 96C131 96 144 90 156 79C168 67 174 50 174 27C174 2 171 -21 164 -40C157 -59 148 -76 137 -91C126 -105 114 -117 100 -126C86 -135 72 -141 57 -144L57 -108C79 -101 97 -86 110 -65C123 -44 130 -22 131 1C128 -2 121 -4 112 -4C98 -4 86 1 77 11C68 20 63 32 63 47ZM61 428C61 443 66 455 76 466C86 476 98 481 113 481C128 481 141 476 151 466C161 455 166 443 166 428C166 413 161 401 151 391C141 381 128 376 113 376C98 376 86 381 76 391C66 401 61 413 61 428Z"/>
<glyph unicode="&#x3c;" horiz-adv-x="525" d="M443 174L443 113L41 320L41 375L443 582L443 522L100 348L443 174Z"/>
<glyph unicode="&#x3d;" horiz-adv-x="591" d="M72 420L72 470L519 470L519 420L72 420ZM72 226L72 277L519 277L519 226L72 226Z"/>
<glyph unicode="&#x3e;" horiz-adv-x="525" d="M426 348L82 522L82 582L484 375L484 320L82 113L82 174L426 348Z"/>
<glyph unicode="&#x3f;" horiz-adv-x="489" d="M206 189C205 194 204 200 204 207C203 213 203 220 203 227C203 258 209 286 220 310C231 333 250 355 275 374L319 408C340 424 357 442 370 463C382 484 388 506 388 531C388 549 385 566 379 582C373 598 364 612 352 625C340 638 325 648 308 655C290 662 270 666 247 666C222 666 200 662 181 654C162 645 147 634 135 621C123 607 114 591 108 574C102 556 99 538 99 519C99 502 102 484 107 465L46 474C41 489 38 506 38 525C38 548 42 572 51 596C59 619 72 640 89 659C106 678 128 693 154 705C180 716 211 722 247 722C279 722 308 717 333 706C358 695 380 681 398 664C415 646 429 626 438 603C447 580 451 556 451 532C451 495 442 463 424 435C405 407 381 382 351 360L306 327C287 314 275 298 269 279C262 260 259 240 259 221C259 215 259 209 260 204C260 199 260 194 261 189L206 189ZM234 -4C220 -4 208 1 199 11C189 20 184 32 184 45C184 59 189 71 199 81C208 90 220 95 234 95C248 95 260 90 270 81C279 71 284 59 284 45C284 32 279 20 270 11C260 1 248 -4 234 -4Z"/>
<glyph unicode="&#x40;" horiz-adv-x="824" d="M601 145C573 145 551 152 535 167C518 181 509 200 507 223C494 198 476 179 454 165C431 151 407 144 382 144C361 144 342 148 324 156C306 164 291 175 278 190C265 205 254 222 247 243C240 263 236 286 236 311C236 341 241 370 251 397C260 424 274 448 291 469C308 489 329 505 352 518C375 530 401 536 428 536C453 536 477 529 499 515C520 501 534 481 539 455L551 524L602 524L552 274C550 264 549 255 549 246C549 231 553 218 561 207C569 196 583 190 604 190C620 190 636 195 652 206C667 217 681 231 693 250C705 268 715 290 723 315C730 340 734 368 734 397C734 433 727 468 714 501C700 534 680 564 655 590C629 616 597 637 560 652C523 667 480 675 433 675C387 675 344 667 305 650C265 633 230 609 201 579C171 548 148 512 131 470C114 428 106 382 106 333C106 286 114 243 129 203C144 162 167 127 196 98C225 69 260 46 301 29C342 12 389 3 441 3C485 3 527 11 568 26C608 41 644 64 676 94L703 60C687 44 669 30 649 17C629 4 608 -8 585 -17C562 -26 538 -32 514 -37C489 -42 465 -44 441 -44C384 -44 331 -35 284 -16C236 3 195 29 161 62C127 95 101 135 82 182C63 228 53 279 53 334C53 390 63 442 83 489C103 536 130 577 165 612C200 646 240 673 286 693C331 712 380 722 432 722C485 722 534 713 577 696C620 678 658 654 689 624C720 594 743 560 760 521C777 482 785 441 785 398C785 361 780 327 770 296C759 265 745 239 728 216C711 193 691 176 669 164C647 151 624 145 601 145ZM521 383C521 414 513 440 497 459C480 478 456 488 425 488C406 488 389 483 372 474C355 465 341 452 329 437C316 422 307 404 300 383C293 362 289 341 289 318C289 301 291 285 295 270C299 255 305 241 313 230C321 219 331 210 344 203C356 196 371 192 388 192C410 192 429 198 446 209C462 220 476 234 487 252C498 269 506 290 512 313C517 336 520 359 521 383Z"/>
<glyph unicode="&#x41;" horiz-adv-x="694" d="M516 219L177 219L90 0L22 0L309 709L385 709L672 0L604 0L516 219ZM200 277L493 277L346 646L200 277Z"/>
<glyph unicode="&#x42;" horiz-adv-x="603" d="M305 709C339 709 369 704 396 695C423 686 445 673 464 657C482 640 496 620 506 597C515 574 520 548 520 520C520 482 510 449 490 422C470 395 444 375 412 364C431 359 449 352 465 341C481 330 495 316 507 301C518 286 527 269 534 250C540 231 543 212 543 191C543 163 538 137 527 114C516 91 502 71 483 54C464 37 441 23 414 14C387 5 358 0 325 0L101 0L101 709L305 709ZM321 386C340 386 358 389 375 396C392 402 406 411 418 423C430 434 439 448 446 464C453 479 456 497 456 516C456 558 442 591 415 616C388 641 349 653 299 653L164 653L164 386L321 386ZM319 56C368 56 407 69 436 94C465 119 479 152 479 195C479 215 476 233 469 250C462 267 452 281 439 293C426 305 410 314 392 321C374 328 354 331 332 331L164 331L164 56L319 56Z"/>
<glyph unicode="&#x43;" horiz-adv-x="746" d="M399 -13C355 -13 312 -5 271 11C229 27 192 51 160 82C127 113 101 151 82 197C62 242 52 295 52 354C52 413 62 466 82 512C101 557 127 596 160 627C193 658 230 682 272 698C313 714 356 722 399 722C439 722 476 717 510 706C543 695 573 679 599 660C625 640 647 616 665 589C683 561 696 530 704 496L647 476C633 535 604 581 561 614C518 647 464 664 399 664C363 664 328 657 294 644C260 631 230 611 204 585C177 559 156 527 140 488C124 449 116 405 116 354C116 303 124 259 140 221C156 182 177 150 204 124C230 98 260 78 294 65C328 52 363 45 399 45C432 45 463 50 491 59C518 68 543 82 565 99C586 116 604 136 619 159C634 182 645 208 652 236L707 216C698 183 685 152 667 124C649 96 627 72 601 52C574 31 544 15 510 4C476 -7 439 -13 399 -13Z"/>
<glyph unicode="&#x44;" horiz-adv-x="712" d="M318 56C355 56 390 62 423 75C456 87 486 105 511 130C536 155 557 186 572 223C587 260 594 304 594 353C594 403 587 447 572 484C557 521 538 553 513 578C488 603 458 621 425 634C392 647 357 653 320 653L164 653L164 56L318 56ZM101 0L101 709L322 709C367 709 410 701 451 686C492 671 527 648 558 618C589 588 613 551 632 507C650 462 659 411 659 353C659 295 650 244 632 200C613 156 588 119 557 90C526 60 490 38 449 23C408 8 365 0 320 0L101 0Z"/>
<glyph unicode="&#x45;" horiz-adv-x="575" d="M101 0L101 709L519 709L519 651L165 651L165 384L488 384L488 326L165 326L165 58L519 58L519 0L101 0Z"/>
<glyph unicode="&#x46;" horiz-adv-x="571" d="M101 0L101 709L521 709L521 651L165 651L165 376L490 376L490 318L165 318L165 0L101 0Z"/>
<glyph unicode="&#x47;" horiz-adv-x="766" d="M649 0L643 137C636 122 626 105 613 88C600 71 583 55 562 40C541 25 517 12 488 2C459 -8 425 -13 386 -13C345 -13 304 -5 264 11C224 27 188 51 157 82C126 113 100 151 81 197C62 242 52 295 52 355C52 414 62 467 81 513C100 558 126 597 158 628C190 659 227 682 268 698C309 714 352 722 395 722C433 722 469 717 502 707C535 696 564 682 591 663C617 644 640 622 659 596C678 570 693 541 703 509L646 485C629 540 598 584 555 616C511 648 458 664 395 664C359 664 324 658 291 645C258 632 228 612 202 586C176 560 155 528 140 489C124 450 116 406 116 355C116 304 124 259 140 220C155 181 176 149 202 123C227 97 256 77 289 64C322 51 355 44 388 44C435 44 474 52 506 68C537 83 563 103 583 126C602 149 616 174 625 201C634 228 638 252 639 275L377 275L377 333L699 333L699 0L649 0Z"/>
<glyph unicode="&#x48;" horiz-adv-x="736" d="M571 0L571 331L165 331L165 0L101 0L101 709L165 709L165 389L571 389L571 709L635 709L635 0L571 0Z"/>
<glyph unicode="&#x49;" horiz-adv-x="266" d="M101 0L101 709L165 709L165 0L101 0Z"/>
<glyph unicode="&#x4a;" horiz-adv-x="537" d="M33 253L96 268L96 211C96 158 109 118 134 89C159 60 195 45 240 45C285 45 320 60 344 89C368 118 380 157 380 208L380 709L444 709L444 209C444 177 439 147 430 120C421 93 407 69 390 50C373 30 351 15 326 4C301 -8 272 -13 240 -13C175 -13 125 7 88 47C51 86 33 140 33 208L33 253Z"/>
<glyph unicode="&#x4b;" horiz-adv-x="638" d="M287 349L165 219L165 0L101 0L101 709L165 709L165 303L541 709L624 709L329 394L628 0L548 0L287 349Z"/>
<glyph unicode="&#x4c;" horiz-adv-x="544" d="M101 0L101 709L165 709L165 58L523 58L523 0L101 0Z"/>
<glyph unicode="&#x4d;" horiz-adv-x="945" d="M780 0L780 614L502 0L442 0L165 614L165 0L101 0L101 709L191 709L473 83L755 709L844 709L844 0L780 0Z"/>
<glyph unicode="&#x4e;" horiz-adv-x="763" d="M594 0L165 630L165 0L101 0L101 709L189 709L598 104L598 709L662 709L662 0L594 0Z"/>
<glyph unicode="&#x4f;" horiz-adv-x="797" d="M116 354C116 303 124 259 140 221C155 182 176 150 203 124C229 98 259 78 293 65C327 52 362 45 398 45C434 45 469 52 503 65C537 78 567 98 594 124C620 150 641 182 657 221C673 259 681 303 681 354C681 405 673 449 657 488C641 527 620 559 594 585C567 611 537 631 503 644C469 657 434 664 398 664C362 664 327 657 293 644C259 631 229 611 203 585C176 559 155 527 140 488C124 449 116 405 116 354ZM52 354C52 413 62 466 82 512C101 557 127 596 160 627C192 658 229 682 271 698C312 714 355 722 398 722C441 722 484 714 526 698C567 682 604 658 637 627C669 596 695 557 715 512C735 466 745 413 745 354C745 295 735 242 715 197C695 151 669 113 637 82C604 51 567 27 526 11C484 -5 441 -13 398 -13C355 -13 312 -5 271 11C229 27 192 51 160 82C127 113 101 151 82 197C62 242 52 295 52 354Z"/>
<glyph unicode="&#x50;" horiz-adv-x="585" d="M325 357C376 357 416 371 445 398C474 425 488 460 488 504C488 548 474 584 445 611C416 638 376 652 325 652L165 652L165 357L325 357ZM165 300L165 0L101 0L101 709L335 709C368 709 397 704 424 694C451 683 474 669 493 651C512 632 526 611 537 586C547 561 552 533 552 504C552 475 547 448 537 423C526 398 512 376 493 358C474 340 451 326 424 316C397 305 368 300 335 300L165 300Z"/>
<glyph unicode="&#x51;" horiz-adv-x="797" d="M598 50C569 29 537 13 503 3C469 -8 434 -13 398 -13C355 -13 312 -5 271 11C229 27 192 51 160 82C127 113 101 151 82 197C62 242 52 295 52 354C52 413 62 466 82 512C101 557 127 596 160 627C192 658 229 682 271 698C312 714 355 722 398 722C441 722 484 714 526 698C567 682 604 658 637 627C669 596 695 557 715 512C735 466 745 413 745 354C745 296 736 245 717 201C698 156 673 118 642 87L734 -15L692 -53L598 50ZM398 45C457 45 510 61 558 94L417 250L461 288L601 132C625 158 644 190 659 227C674 264 681 306 681 354C681 405 673 449 657 488C641 527 620 559 594 585C567 611 537 631 503 644C469 657 434 664 398 664C362 664 327 657 293 644C259 631 229 611 203 585C176 559 155 527 140 488C124 449 116 405 116 354C116 303 124 259 140 221C155 182 176 150 203 124C229 98 259 78 293 65C327 52 362 45 398 45Z"/>
<glyph unicode="&#x52;" horiz-adv-x="613" d="M313 307L165 307L165 0L101 0L101 709L348 709C380 709 409 704 435 694C460 683 482 669 501 651C520 633 534 612 544 587C554 562 559 536 559 507C559 481 555 457 547 435C538 412 526 393 511 376C496 359 477 344 455 333C433 322 409 314 382 311L558 0L484 0L313 307ZM338 364C385 364 423 377 452 403C481 429 495 464 495 507C495 551 481 586 452 613C423 639 385 652 338 652L165 652L165 364L338 364Z"/>
<glyph unicode="&#x53;" horiz-adv-x="582" d="M467 528C463 546 457 563 449 580C440 597 429 611 415 624C401 637 384 647 364 655C344 662 321 666 294 666C273 666 252 663 233 656C214 649 197 640 182 628C167 615 155 600 146 583C137 566 132 547 132 526C132 494 142 467 161 446C180 425 208 410 244 401L352 376C407 363 451 340 483 309C514 277 530 236 530 186C530 159 525 133 514 109C503 85 487 64 466 46C445 28 421 14 392 3C363 -8 331 -13 295 -13C256 -13 221 -7 191 5C161 17 135 33 114 52C93 71 76 94 64 119C51 144 44 171 41 198L100 217C102 194 108 172 118 151C127 130 140 112 157 96C174 80 194 67 217 58C240 49 266 44 295 44C322 44 347 48 368 55C389 62 407 71 422 84C437 96 448 110 456 127C463 144 467 162 467 181C467 214 456 243 434 266C412 289 381 305 340 314L233 339C209 344 187 352 167 363C147 373 130 386 116 401C101 416 90 434 82 454C73 474 69 497 69 522C69 549 75 575 88 600C100 624 116 645 137 663C157 681 181 695 208 706C235 717 263 722 292 722C328 722 360 717 387 708C414 698 436 685 455 669C473 653 488 635 499 614C510 593 518 571 523 548L467 528Z"/>
<glyph unicode="&#x54;" horiz-adv-x="603" d="M333 651L333 0L269 0L269 651L19 651L19 709L584 709L584 651L333 651Z"/>
<glyph unicode="&#x55;" horiz-adv-x="672" d="M336 -13C300 -13 267 -8 238 3C208 14 182 30 161 51C139 72 122 98 111 129C99 160 93 195 93 236L93 709L157 709L157 239C157 176 172 128 203 95C233 62 277 45 336 45C395 45 439 62 470 95C500 128 515 176 515 239L515 709L579 709L579 236C579 196 573 161 562 130C550 99 533 73 512 52C491 31 465 15 435 4C405 -8 372 -13 336 -13Z"/>
<glyph unicode="&#x56;" horiz-adv-x="655" d="M564 709L631 709L358 0L295 0L26 709L94 709L328 76L564 709Z"/>
<glyph unicode="&#x57;" horiz-adv-x="990" d="M900 709L965 709L761 0L692 0L494 626L296 0L230 0L23 709L89 709L264 89L460 709L529 709L726 89L900 709Z"/>
<glyph unicode="&#x58;" horiz-adv-x="591" d="M332 356L570 0L495 0L296 305L93 0L19 0L259 356L21 709L97 709L296 405L496 709L571 709L332 356Z"/>
<glyph unicode="&#x59;" horiz-adv-x="616" d="M29 709L104 709L308 362L513 709L587 709L339 303L339 0L277 0L277 303L29 709Z"/>
<glyph unicode="&#x5a;" horiz-adv-x="624" d="M40 0L40 65L506 651L46 651L46 709L580 709L580 646L113 58L583 58L583 0L40 0Z"/>
<glyph unicode="&#x5b;" horiz-adv-x="260" d="M76 -141L76 777L230 777L230 728L129 728L129 -92L230 -92L230 -141L76 -141Z"/>
<glyph unicode="&#x5c;" horiz-adv-x="466" d="M31 709L92 709L433 0L373 0L31 709Z"/>
<glyph unicode="&#x5d;" horiz-adv-x="260" d="M30 -141L30 -92L131 -92L131 728L30 728L30 777L184 777L184 -141L30 -141Z"/>
<glyph unicode="&#x5e;" horiz-adv-x="542" d="M428 355L272 648L114 355L51 355L245 709L298 709L491 355L428 355Z"/>
<glyph unicode="&#x5f;" horiz-adv-x="522" d="M5 -50L5 0L517 0L517 -50L5 -50Z"/>
<glyph unicode="&#x60;" horiz-adv-x="248" d="M41 676L117 676L206 537L159 537L41 676Z"/>
<glyph unicode="&#x61;" horiz-adv-x="500" d="M201 -12C176 -12 153 -8 134 -1C115 7 99 17 86 30C73 42 63 56 56 73C49 89 45 106 45 123C45 164 58 196 84 219C109 242 144 257 188 264L315 283C336 286 349 292 356 300C362 308 365 318 365 329C365 361 355 387 335 407C314 427 284 437 245 437C207 437 176 427 153 408C129 388 115 361 111 326L55 338C58 361 64 381 75 400C86 419 99 435 116 448C132 461 151 471 173 478C195 485 219 489 244 489C275 489 302 485 325 476C348 467 366 456 381 441C396 426 407 408 414 388C421 367 425 346 425 323L425 82C425 63 426 47 427 34C428 21 430 10 432 0L373 0C372 5 370 16 369 31C368 46 367 63 367 82C362 71 354 60 344 49C334 38 322 28 308 19C294 10 278 2 261 -4C243 -9 223 -12 201 -12ZM208 39C231 39 252 43 271 50C290 57 307 68 321 81C335 94 346 111 354 130C361 149 365 171 365 195L365 249C364 248 360 246 354 243C347 240 339 238 330 237L197 217C169 213 147 203 131 188C114 173 106 152 106 126C106 104 115 84 132 66C149 48 175 39 208 39Z"/>
<glyph unicode="&#x62;" horiz-adv-x="577" d="M80 0L80 722L140 722L140 385C145 397 153 409 163 422C172 434 184 445 199 455C213 465 230 473 249 480C268 487 289 490 313 490C346 490 376 484 403 471C430 458 452 440 471 418C490 395 504 369 514 338C524 307 529 274 529 239C529 204 524 171 514 140C503 109 489 83 470 60C451 37 428 20 401 7C374 -7 344 -13 311 -13C288 -13 267 -10 249 -4C230 3 214 11 200 21C186 31 174 42 164 55C153 68 145 80 139 93L139 0L80 0ZM304 41C329 41 351 46 371 56C391 65 408 79 423 97C438 114 449 135 457 159C465 183 469 210 469 239C469 268 465 294 457 318C449 342 438 363 423 381C408 398 391 412 371 422C351 431 329 436 304 436C279 436 257 431 237 422C216 412 199 398 185 381C170 363 159 342 151 318C143 294 139 268 139 239C139 210 143 183 151 159C159 135 170 114 185 97C199 79 216 65 237 56C257 46 279 41 304 41Z"/>
<glyph unicode="&#x63;" horiz-adv-x="529" d="M281 436C257 436 235 432 214 423C193 414 174 401 159 384C143 367 130 346 121 321C112 296 107 269 107 238C107 208 112 181 121 157C130 132 142 112 158 95C174 78 193 64 214 55C235 46 257 41 281 41C304 41 324 45 342 52C359 59 374 69 387 80C400 91 410 104 418 118C426 131 432 145 436 158L489 136C483 117 474 99 463 82C452 64 437 48 420 34C402 20 382 9 359 0C336 -9 310 -13 281 -13C247 -13 216 -7 188 6C159 18 135 35 114 58C93 80 76 106 65 137C53 168 47 201 47 238C47 275 53 309 65 340C76 371 93 397 114 420C135 442 159 459 188 472C217 484 248 490 281 490C310 490 335 486 358 478C381 470 401 459 418 445C435 431 449 415 460 397C471 379 480 360 485 340L432 318C428 332 422 346 415 360C407 374 397 387 385 398C373 409 358 419 341 426C324 433 304 436 281 436Z"/>
<glyph unicode="&#x64;" horiz-adv-x="574" d="M107 239C107 211 111 185 119 161C126 137 137 116 152 98C166 80 183 66 204 56C224 46 247 41 272 41C297 41 319 46 339 56C359 66 376 80 390 98C404 116 415 137 423 161C430 185 434 211 434 239C434 267 430 293 423 318C415 342 404 363 390 380C376 397 359 411 340 421C320 431 298 436 273 436C248 436 225 431 205 422C184 412 167 398 153 381C138 363 127 342 119 318C111 294 107 268 107 239ZM434 94C429 82 421 70 412 57C403 44 391 33 378 23C364 12 348 4 330 -3C311 -10 290 -13 267 -13C234 -13 203 -7 176 7C149 20 126 37 107 60C88 83 73 109 63 140C52 171 47 204 47 239C47 274 52 306 63 337C74 368 89 394 108 417C127 440 150 458 177 471C204 484 234 490 267 490C292 490 315 487 334 480C353 473 369 464 382 454C395 443 406 432 415 420C423 408 429 397 433 387L433 722L493 722L493 91C493 66 494 45 495 29C496 12 497 3 498 0L439 0C438 6 437 16 436 29C435 42 434 58 434 75L434 94Z"/>
<glyph unicode="&#x65;" horiz-adv-x="535" d="M428 277C427 299 423 320 416 339C409 358 398 375 385 390C372 404 355 415 336 424C316 432 294 436 269 436C247 436 227 432 208 424C189 415 172 404 158 390C144 375 133 358 125 339C116 320 111 299 110 277L428 277ZM488 135C481 115 472 96 460 78C447 60 432 44 415 31C397 17 377 6 354 -2C331 -9 306 -13 279 -13C248 -13 218 -7 190 4C161 15 137 32 116 54C95 75 78 102 66 133C53 164 47 200 47 240C47 277 53 311 65 342C77 373 93 399 113 421C133 443 156 460 183 472C210 484 238 490 268 490C303 490 335 484 362 472C389 460 413 443 432 422C451 401 465 375 476 346C486 317 491 284 491 249C491 245 491 241 491 238C491 235 491 231 490 227L108 227L108 223C108 196 113 171 122 149C131 126 143 107 159 91C174 75 192 63 213 54C234 45 256 41 279 41C322 41 356 52 382 74C407 96 425 123 435 154L488 135Z"/>
<glyph unicode="&#x66;" horiz-adv-x="326" d="M175 423L175 0L115 0L115 423L17 423L17 477L115 477L115 576C115 627 129 665 156 691C183 717 217 730 257 730C270 730 281 729 290 727C299 725 306 723 311 720L311 666C306 668 300 670 293 672C286 673 277 674 266 674C254 674 243 672 232 669C221 666 211 660 203 652C194 644 188 634 183 621C178 608 175 592 175 573L175 477L308 477L308 423L175 423Z"/>
<glyph unicode="&#x67;" horiz-adv-x="562" d="M105 -13C107 -32 112 -49 121 -66C129 -83 140 -97 153 -110C166 -122 182 -132 200 -139C217 -146 237 -150 258 -150C289 -150 316 -145 337 -135C358 -125 374 -112 387 -95C400 -78 409 -59 414 -37C419 -14 422 9 422 34L422 122C417 110 409 98 400 87C391 75 379 65 366 56C353 47 337 39 320 34C303 28 283 25 261 25C230 25 201 31 175 43C149 54 127 70 108 91C89 112 74 136 64 165C53 193 48 224 48 257C48 290 53 320 64 348C74 376 88 400 107 421C126 442 148 458 174 470C200 482 229 488 261 488C283 488 303 486 321 481C338 476 354 469 367 460C380 451 391 441 400 430C409 419 417 407 423 395L423 477L482 477L482 35C482 7 479 -21 472 -49C465 -77 453 -103 436 -126C419 -149 396 -167 367 -182C338 -196 301 -203 257 -203C228 -203 201 -199 177 -190C153 -181 132 -168 114 -153C95 -137 80 -118 69 -97C58 -76 51 -52 48 -27L105 -13ZM268 77C291 77 313 82 332 91C351 100 368 112 382 128C395 144 406 163 413 185C420 207 424 231 424 257C424 283 420 307 413 329C406 350 395 369 382 385C368 401 351 414 332 423C313 432 291 436 268 436C244 436 222 432 203 423C183 414 166 401 152 386C138 370 127 351 120 329C112 307 108 283 108 257C108 231 112 207 120 185C127 163 138 144 152 128C166 112 183 100 203 91C222 82 244 77 268 77Z"/>
<glyph unicode="&#x68;" horiz-adv-x="537" d="M140 0L80 0L80 722L140 722L140 402C153 426 172 447 198 464C224 481 256 490 293 490C321 490 346 485 367 476C388 467 406 454 420 438C434 422 445 403 452 382C459 360 462 337 462 312L462 0L402 0L402 302C402 321 400 338 395 355C390 371 382 385 371 397C360 409 347 419 331 426C315 433 296 436 273 436C253 436 235 432 218 424C201 415 187 404 176 391C165 377 156 361 150 343C143 325 140 306 140 287L140 0Z"/>
<glyph unicode="&#x69;" horiz-adv-x="220" d="M80 0L80 477L140 477L140 0L80 0ZM60 675C60 690 65 702 75 711C84 720 96 725 110 725C124 725 136 720 146 711C155 702 160 690 160 675C160 660 155 648 146 639C136 630 124 625 110 625C96 625 84 630 75 639C65 648 60 660 60 675Z"/>
<glyph unicode="&#x6a;" horiz-adv-x="220" d="M80 477L140 477L140 -65C140 -109 129 -143 106 -167C83 -191 52 -203 14 -203C1 -203 -10 -202 -19 -201C-27 -199 -34 -197 -39 -194L-39 -143C-28 -147 -15 -149 2 -149C54 -149 80 -120 80 -63L80 477ZM60 675C60 690 65 702 75 711C84 720 96 725 110 725C124 725 136 720 146 711C155 702 160 690 160 675C160 660 155 648 146 639C136 630 124 625 110 625C96 625 84 630 75 639C65 648 60 660 60 675Z"/>
<glyph unicode="&#x6b;" horiz-adv-x="496" d="M270 274L477 0L402 0L228 233L140 146L140 0L80 0L80 722L140 722L140 225L390 477L473 477L270 274Z"/>
<glyph unicode="&#x6c;" horiz-adv-x="220" d="M80 0L80 722L140 722L140 0L80 0Z"/>
<glyph unicode="&#x6d;" horiz-adv-x="845" d="M80 0L80 477L139 477L139 398C150 423 168 445 195 463C222 481 254 490 291 490C328 490 360 481 387 462C414 443 432 416 441 382C456 417 477 443 506 462C534 481 567 490 605 490C628 490 650 486 670 479C690 471 708 460 723 445C738 430 749 411 758 390C766 368 770 343 770 316L770 0L710 0L710 309C710 345 700 375 679 400C658 425 628 437 588 437C568 437 550 433 534 426C517 418 503 408 492 395C480 382 471 366 465 349C458 331 455 312 455 293L455 0L395 0L395 309C395 345 385 375 365 400C344 425 314 437 273 437C253 437 235 433 219 426C202 418 188 408 177 395C165 382 156 366 150 349C143 332 140 313 140 293L140 0L80 0Z"/>
<glyph unicode="&#x6e;" horiz-adv-x="537" d="M140 0L80 0L80 477L138 477L138 401C151 426 171 447 198 464C225 481 256 489 293 489C321 489 346 484 367 475C388 466 405 453 420 437C434 421 445 402 452 381C459 359 462 336 462 311L462 0L402 0L402 301C402 320 400 337 395 354C390 370 383 384 372 396C361 408 348 418 332 425C315 432 296 435 273 435C252 435 234 431 218 423C201 415 187 404 176 391C164 377 155 361 149 343C143 324 140 305 140 285L140 0Z"/>
<glyph unicode="&#x6f;" horiz-adv-x="568" d="M284 -13C251 -13 220 -7 191 6C162 18 137 35 116 57C95 79 78 105 66 136C53 167 47 201 47 238C47 275 53 310 65 341C77 372 94 398 115 420C136 442 162 459 191 471C220 483 251 489 284 489C317 489 348 483 377 471C406 459 431 442 452 420C473 398 490 372 503 341C515 310 521 275 521 238C521 201 515 167 503 136C490 105 473 79 452 57C431 35 406 18 377 6C348 -7 317 -13 284 -13ZM108 238C108 207 113 179 123 155C132 130 145 110 161 93C177 76 196 64 217 55C238 46 261 41 284 41C307 41 330 46 351 55C372 64 391 76 407 93C423 110 436 130 446 155C455 179 460 207 460 238C460 269 455 297 446 322C436 346 423 367 407 384C391 401 372 413 351 422C330 431 307 435 284 435C261 435 238 431 217 422C196 413 177 401 161 384C145 367 132 346 123 322C113 297 108 269 108 238Z"/>
<glyph unicode="&#x70;" horiz-adv-x="577" d="M80 -190L80 477L139 477L139 382C145 394 153 407 163 420C172 433 184 444 199 455C214 465 230 473 249 480C268 487 289 490 313 490C347 490 377 484 404 471C431 458 453 440 472 418C490 395 504 369 514 338C524 307 529 274 529 239C529 204 524 171 514 140C504 109 490 83 471 60C452 37 429 20 402 7C375 -7 344 -13 311 -13C288 -13 267 -10 249 -4C230 3 214 11 200 21C186 30 174 41 164 54C154 66 146 78 140 90L140 -190L80 -190ZM469 239C469 267 465 293 457 317C449 341 438 362 424 380C409 397 392 411 371 421C350 431 328 436 303 436C278 436 256 431 236 421C215 411 198 397 184 380C169 362 158 341 151 317C143 293 139 267 139 239C139 211 143 185 151 161C158 136 169 115 184 98C198 80 215 66 236 56C256 46 278 41 303 41C328 41 350 46 371 56C392 66 409 80 424 98C438 116 449 137 457 161C465 185 469 211 469 239Z"/>
<glyph unicode="&#x71;" horiz-adv-x="573" d="M433 -190L433 91C427 78 419 66 410 54C400 41 388 30 374 20C360 10 344 2 326 -4C308 -10 288 -13 265 -13C232 -13 202 -7 175 7C148 20 126 37 107 60C88 83 73 109 63 140C52 171 47 204 47 239C47 274 52 306 63 337C73 368 88 394 107 417C126 440 148 458 175 471C202 484 231 490 264 490C289 490 311 487 330 480C349 473 365 465 379 455C393 444 404 433 413 420C422 407 429 395 434 383L434 477L493 477L493 -190L433 -190ZM107 239C107 211 111 185 119 161C126 137 137 116 152 98C166 80 183 66 204 56C224 46 246 41 271 41C296 41 318 46 338 56C358 66 375 80 390 98C404 116 415 137 423 161C430 185 434 211 434 239C434 267 430 293 423 318C415 342 404 363 390 380C375 397 358 411 338 421C318 431 296 436 271 436C246 436 223 431 203 421C183 411 166 397 152 380C137 363 126 342 119 318C111 293 107 267 107 239Z"/>
<glyph unicode="&#x72;" horiz-adv-x="337" d="M323 415C311 418 297 420 281 420C240 420 207 407 180 381C153 354 140 314 140 259L140 0L80 0L80 477L139 477L139 388C154 421 174 446 200 461C225 476 254 483 286 483C302 483 314 481 323 478L323 415Z"/>
<glyph unicode="&#x73;" horiz-adv-x="439" d="M95 144C100 115 113 90 135 70C156 49 187 39 226 39C256 39 281 47 302 63C322 78 332 99 332 124C332 146 325 163 311 176C296 189 276 198 251 204L174 222C139 230 110 245 89 266C68 287 57 314 57 349C57 368 61 387 70 404C79 421 90 435 105 448C120 461 137 471 156 478C175 485 196 489 218 489C246 489 270 485 290 478C310 471 327 461 341 449C354 437 365 424 373 409C380 394 386 380 389 366L336 346C334 357 330 369 325 380C319 391 311 400 302 409C293 417 281 424 267 429C253 434 237 437 218 437C205 437 192 435 180 431C167 427 156 421 147 414C138 407 130 398 125 388C119 377 116 366 116 353C116 314 141 288 191 277L267 260C307 251 338 235 359 213C380 191 391 163 391 128C391 110 387 93 380 76C373 59 362 44 348 31C334 18 317 7 296 -1C275 -9 252 -13 225 -13C196 -13 170 -9 148 -1C126 8 107 19 92 32C77 45 65 60 56 77C47 93 42 109 40 125L95 144Z"/>
<glyph unicode="&#x74;" horiz-adv-x="328" d="M177 477L301 477L301 423L177 423L177 135C177 78 204 49 258 49C267 49 275 50 283 52C290 53 296 55 301 57L301 4C297 2 290 0 280 -2C269 -4 257 -5 242 -5C203 -5 173 6 151 29C128 52 117 85 117 129L117 423L16 423L16 477L52 477C75 477 92 483 103 494C114 505 119 522 119 547L119 628L177 628L177 477Z"/>
<glyph unicode="&#x75;" horiz-adv-x="539" d="M402 74C391 51 372 30 347 13C322 -4 290 -13 252 -13C222 -13 196 -8 174 3C151 13 133 27 118 45C103 62 92 82 85 105C78 128 74 152 74 177L74 477L134 477L134 187C134 168 136 149 141 132C146 115 153 99 164 86C174 72 187 61 204 53C220 45 240 41 263 41C284 41 303 45 320 53C337 60 351 71 363 84C374 97 383 112 389 130C395 147 398 166 398 186L398 477L458 477L458 91C458 73 459 56 460 40C461 24 463 11 464 0L407 0C406 5 405 14 404 26C403 38 402 52 402 67L402 74Z"/>
<glyph unicode="&#x76;" horiz-adv-x="499" d="M281 0L218 0L29 477L97 477L249 68L403 477L470 477L281 0Z"/>
<glyph unicode="&#x77;" horiz-adv-x="795" d="M431 477L573 74L698 477L763 477L607 0L540 0L398 404L256 0L189 0L31 477L97 477L224 74L366 477L431 477Z"/>
<glyph unicode="&#x78;" horiz-adv-x="478" d="M202 243L28 477L99 477L239 286L379 477L450 477L274 243L457 0L385 0L238 200L92 0L20 0L202 243Z"/>
<glyph unicode="&#x79;" horiz-adv-x="501" d="M109 -190L228 62L25 477L92 477L259 125L417 477L483 477L174 -190L109 -190Z"/>
<glyph unicode="&#x7a;" horiz-adv-x="464" d="M43 0L43 53L345 423L46 423L46 477L417 477L417 424L117 54L422 54L422 0L43 0Z"/>
<glyph unicode="&#x7b;" horiz-adv-x="311" d="M23 347C53 349 78 359 98 376C118 393 128 419 128 453L128 613C128 718 177 771 275 771L284 771L284 722L275 722C239 722 214 713 201 696C188 679 181 652 181 616L181 441C181 408 172 381 153 359C134 337 109 323 76 318C109 313 135 299 154 277C172 255 181 228 181 195L181 20C181 -16 188 -43 201 -60C214 -77 239 -86 275 -86L284 -86L284 -134L275 -134C177 -134 128 -81 128 24L128 183C128 217 118 243 98 260C78 277 53 287 23 289L23 347Z"/>
<glyph unicode="&#x7c;" horiz-adv-x="205" d="M76 -141L76 777L129 777L129 -141L76 -141Z"/>
<glyph unicode="&#x7d;" horiz-adv-x="311" d="M288 289C258 287 233 277 213 260C193 243 183 217 183 183L183 24C183 -81 134 -134 36 -134L27 -134L27 -86L36 -86C72 -86 97 -77 110 -60C123 -43 130 -16 130 20L130 195C130 228 139 255 158 277C176 299 202 313 235 318C202 323 177 337 158 359C139 381 130 408 130 441L130 616C130 652 123 679 110 696C97 713 72 722 36 722L27 722L27 771L36 771C134 771 183 718 183 613L183 453C183 419 193 393 213 376C233 359 258 349 288 347L288 289Z"/>
<glyph unicode="&#x7e;" horiz-adv-x="620" d="M272 278C249 291 227 297 208 297C187 297 168 292 153 283C137 273 122 259 109 240L72 270C107 323 152 350 207 350C236 350 267 341 298 324L344 299C355 293 367 288 380 285C392 281 403 279 413 279C434 279 453 284 469 293C484 302 498 316 510 334L547 304C530 278 510 258 489 245C467 232 442 225 413 225C398 225 383 228 368 233C352 238 336 244 319 253L272 278Z"/>
<glyph unicode="&#xa0;" horiz-adv-x="259" />
<glyph unicode="&#xa1;" horiz-adv-x="212" d="M85 294L126 294L144 -226L68 -226L85 294ZM108 487C122 487 134 482 144 473C153 463 158 451 158 438C158 424 153 412 144 403C134 393 122 388 108 388C94 388 82 393 73 403C63 412 58 424 58 438C58 451 63 463 73 473C82 482 94 487 108 487Z"/>
<glyph unicode="&#xa2;" horiz-adv-x="539" d="M308 0L258 0L258 99C228 102 200 110 175 124C150 137 128 155 110 177C91 198 77 224 67 253C56 282 51 313 51 348C51 382 56 414 67 443C77 472 91 498 110 520C128 541 150 559 175 573C200 586 228 595 258 598L258 709L308 709L308 598C357 594 398 578 429 550C460 521 480 487 491 448L438 427C435 440 430 452 423 465C416 478 408 489 398 500C387 511 375 520 360 528C345 535 328 540 308 543L308 154C327 156 345 161 360 169C375 176 388 186 399 197C410 208 419 219 426 232C433 245 439 257 443 269L494 249C489 230 481 213 470 196C459 179 446 163 431 150C415 136 397 124 376 115C355 106 333 100 308 98L308 0ZM110 348C110 322 114 298 121 276C128 253 138 234 151 217C164 200 179 186 198 175C216 164 236 157 258 154L258 542C236 539 216 532 198 521C179 510 164 496 151 479C138 462 128 442 121 420C114 398 110 374 110 348Z"/>
<glyph unicode="&#xa3;" horiz-adv-x="593" d="M221 310C223 301 225 291 227 282C228 273 229 262 229 251C229 228 226 207 221 188C216 168 209 150 200 134C191 117 180 103 168 90C156 77 144 65 131 55L364 55C404 55 435 67 457 92C479 117 491 149 494 189L551 181C548 127 531 83 501 50C470 17 428 0 374 0L54 0L54 56C69 65 83 77 96 90C109 103 121 117 132 133C143 149 151 167 158 187C164 206 167 227 167 249C167 270 164 290 158 310L63 310L63 363L142 363C133 386 123 411 114 436C105 461 100 488 100 519C100 548 105 574 115 599C124 624 138 645 156 663C174 681 196 695 222 706C247 716 276 721 307 721C338 721 366 716 391 707C415 697 436 684 453 667C470 650 483 631 493 610C502 588 508 565 510 541L452 528C451 548 446 566 439 583C432 600 422 614 409 627C396 639 382 649 365 656C348 663 329 666 308 666C287 666 267 663 250 656C232 649 217 639 204 626C191 613 180 598 173 579C166 560 162 540 162 517C162 502 164 488 167 475C170 462 173 449 178 437C182 424 187 412 192 400C197 388 202 376 207 363L402 363L402 310L221 310Z"/>
<glyph unicode="&#xa4;" horiz-adv-x="614" d="M436 177C400 149 358 135 310 135C285 135 262 139 239 147C216 155 196 166 179 181L107 106L69 144L142 219C112 255 97 298 97 348C97 373 101 397 110 420C118 443 129 463 144 480L70 557L108 594L182 518C200 531 220 542 242 550C264 557 287 561 310 561C357 561 398 548 433 521L505 594L542 557L473 484C488 466 501 445 510 422C519 399 524 374 524 348C524 323 520 298 511 275C502 252 490 231 475 214L544 144L506 106L436 177ZM151 348C151 325 155 304 164 285C172 265 183 248 198 234C212 219 229 208 248 200C267 191 288 187 310 187C332 187 353 191 372 200C391 208 408 219 423 234C437 248 448 265 456 285C464 304 468 325 468 348C468 371 464 392 456 412C448 431 437 448 423 463C408 478 391 489 372 497C353 505 332 509 310 509C288 509 267 505 248 497C229 489 212 478 198 463C183 448 172 431 164 412C155 392 151 371 151 348Z"/>
<glyph unicode="&#xa5;" horiz-adv-x="618" d="M278 0L278 175L89 175L89 225L278 225L278 309L89 309L89 359L249 359L35 709L108 709L311 371L513 709L583 709L369 359L531 359L531 309L341 309L341 225L531 225L531 175L341 175L341 0L278 0Z"/>
<glyph unicode="&#xa6;" horiz-adv-x="215" d="M134 777L134 378L81 378L81 777L134 777ZM134 259L134 -141L81 -141L81 259L134 259Z"/>
<glyph unicode="&#xa7;" horiz-adv-x="500" d="M67 281C67 296 70 310 75 323C80 336 86 349 94 360C102 371 111 380 122 388C133 396 144 402 155 407C126 425 103 446 88 470C73 494 65 522 65 554C65 579 70 602 81 623C91 644 105 661 122 676C139 691 158 702 181 710C203 718 226 722 251 722C280 722 306 718 329 709C352 700 371 687 387 671C403 655 415 636 424 615C433 593 437 569 438 543L380 530C379 573 368 607 345 633C322 658 291 671 250 671C233 671 218 668 203 663C188 658 174 650 163 641C151 631 142 619 135 606C128 592 125 576 125 559C125 534 132 512 146 495C159 478 178 463 201 450L307 393C325 384 342 374 357 364C372 354 386 343 397 331C408 318 417 305 424 290C430 275 433 257 433 238C433 207 424 181 407 160C389 139 368 123 343 112C406 75 437 26 437 -35C437 -60 432 -83 422 -104C412 -125 398 -142 381 -157C364 -172 344 -183 321 -191C298 -199 273 -203 248 -203C219 -203 193 -199 170 -190C147 -181 128 -169 112 -153C95 -137 83 -118 74 -96C65 -74 60 -50 59 -23L116 -11C117 -53 130 -87 153 -113C176 -139 208 -152 250 -152C286 -152 316 -142 341 -122C365 -102 377 -75 377 -41C377 -15 370 7 357 24C343 41 324 57 299 70L193 127C175 136 158 146 143 156C127 166 114 177 103 189C92 201 83 215 77 230C70 245 67 262 67 281ZM303 134C322 141 338 152 353 169C367 186 374 206 374 229C374 252 367 272 354 288C341 304 321 319 296 332L196 385C177 378 161 366 148 349C134 332 127 312 127 290C127 267 134 248 147 232C160 216 179 201 204 188L303 134Z"/>
<glyph unicode="&#xa8;" horiz-adv-x="350" d="M221 611C221 622 225 632 234 641C242 649 252 653 263 653C274 653 284 649 293 641C301 632 305 622 305 611C305 600 301 590 293 582C284 573 274 569 263 569C252 569 242 573 234 582C225 590 221 600 221 611ZM45 611C45 622 49 632 58 641C66 649 76 653 87 653C98 653 108 649 117 641C125 632 129 622 129 611C129 600 125 590 117 582C108 573 98 569 87 569C76 569 66 573 58 582C49 590 45 600 45 611Z"/>
<glyph unicode="&#xa9;" horiz-adv-x="834" d="M420 513C401 513 383 509 366 502C349 495 334 484 321 471C308 457 299 440 292 421C285 402 281 380 281 355C281 330 285 308 292 289C299 270 308 253 321 240C334 226 348 215 365 208C382 201 400 197 420 197C439 197 455 200 470 206C484 211 496 218 507 227C518 236 526 246 533 257C540 268 545 279 548 290L593 270C588 255 581 240 572 226C562 211 550 198 536 187C521 176 505 167 486 160C467 153 445 149 422 149C394 149 368 154 345 165C321 175 301 189 284 207C267 225 253 247 244 272C234 297 229 325 229 355C229 385 234 413 244 438C253 463 267 485 284 504C301 522 321 536 344 546C367 556 393 561 420 561C444 561 466 558 485 551C504 544 520 535 534 524C548 513 560 500 569 485C578 470 585 454 590 438L543 420C536 445 522 467 503 486C483 504 455 513 420 513ZM417 674C374 674 333 666 295 650C257 633 224 611 196 582C168 553 146 519 130 480C113 441 105 399 105 354C105 309 113 268 130 229C146 190 168 156 196 127C224 98 257 76 295 60C333 43 374 35 417 35C460 35 501 43 539 60C577 76 610 98 638 127C666 156 688 190 705 229C721 268 729 309 729 354C729 399 721 441 705 480C688 519 666 553 638 582C610 611 577 633 539 650C501 666 460 674 417 674ZM417 -13C366 -13 319 -4 275 16C231 35 193 61 160 94C127 127 101 166 82 211C63 255 53 303 53 354C53 405 63 453 82 498C101 543 127 582 160 615C193 648 231 675 275 694C319 713 366 722 417 722C468 722 515 713 559 694C603 675 642 648 675 615C708 582 734 543 753 498C772 453 781 405 781 354C781 303 772 255 753 211C734 166 708 127 675 94C642 61 603 35 559 16C515 -4 468 -13 417 -13Z"/>
<glyph unicode="&#xaa;" horiz-adv-x="405" d="M281 549C279 546 277 545 274 544C271 543 265 541 258 540L167 525C149 522 135 515 124 506C113 496 108 482 108 465C108 450 114 436 125 425C136 413 154 407 177 407C211 407 237 418 255 439C272 460 281 489 281 526L281 549ZM57 463C57 491 66 513 84 530C102 547 126 557 156 561L249 575C261 577 269 581 274 587C279 592 281 599 281 606C281 627 274 644 260 657C246 670 226 677 199 677C174 677 153 670 138 656C122 642 112 623 109 600L63 612C66 643 80 669 105 690C129 710 160 720 198 720C221 720 242 717 259 711C276 704 289 696 300 685C311 674 319 661 324 646C329 631 331 616 331 600L331 431C331 419 331 408 332 398C333 387 334 379 335 374L286 374C285 379 284 386 283 395C282 403 282 414 282 427C274 412 261 398 242 385C223 372 199 365 170 365C152 365 136 368 122 373C107 378 95 386 86 395C77 404 70 414 65 426C60 438 57 450 57 463Z"/>
<glyph unicode="&#xab;" horiz-adv-x="465" d="M181 95L48 286L181 477L241 477L109 286L241 95L181 95ZM350 95L217 286L350 477L410 477L278 286L410 95L350 95Z"/>
<glyph unicode="&#xac;" horiz-adv-x="578" d="M445 218L445 419L60 419L60 472L500 472L500 218L445 218Z"/>
<glyph unicode="&#xad;" horiz-adv-x="403" d="M70 261L70 313L333 313L333 261L70 261Z"/>
<glyph unicode="&#xae;" horiz-adv-x="834" d="M426 362C452 362 473 369 488 382C503 395 510 413 510 436C510 460 503 479 488 492C473 505 452 512 426 512L352 512L352 362L426 362ZM352 156L302 156L302 556L433 556C452 556 469 553 485 547C500 541 514 533 525 522C536 511 544 499 551 484C557 469 560 454 560 437C560 408 551 383 534 362C517 341 494 328 466 322L562 156L503 156L411 318L352 318L352 156ZM417 674C374 674 333 666 295 650C257 633 224 611 196 582C168 553 146 519 130 480C113 441 105 399 105 354C105 309 113 268 130 229C146 190 168 156 196 127C224 98 257 76 295 60C333 43 374 35 417 35C460 35 501 43 539 60C577 76 610 98 638 127C666 156 688 190 705 229C721 268 729 309 729 354C729 399 721 441 705 480C688 519 666 553 638 582C610 611 577 633 539 650C501 666 460 674 417 674ZM417 -13C366 -13 319 -4 275 16C231 35 193 61 160 94C127 127 101 166 82 211C63 255 53 303 53 354C53 405 63 453 82 498C101 543 127 582 160 615C193 648 231 675 275 694C319 713 366 722 417 722C468 722 515 713 559 694C603 675 642 648 675 615C708 582 734 543 753 498C772 453 781 405 781 354C781 303 772 255 753 211C734 166 708 127 675 94C642 61 603 35 559 16C515 -4 468 -13 417 -13Z"/>
<glyph unicode="&#xaf;" horiz-adv-x="344" d="M45 583L45 633L299 633L299 583L45 583Z"/>
<glyph unicode="&#xb0;" horiz-adv-x="404" d="M202 462C231 462 255 472 274 492C293 511 302 536 302 566C302 595 293 620 274 640C255 659 231 669 202 669C188 669 175 666 163 661C150 656 140 648 131 639C122 630 115 619 110 607C105 594 102 581 102 566C102 551 105 538 110 525C115 512 122 501 131 492C140 483 150 475 163 470C175 465 188 462 202 462ZM48 566C48 587 52 607 60 626C68 645 79 661 93 675C107 688 123 699 142 707C161 715 181 719 202 719C223 719 243 715 262 707C281 699 297 688 311 675C325 661 336 645 344 626C352 607 356 587 356 566C356 545 352 525 344 506C336 487 325 471 311 457C297 443 281 432 262 424C243 416 223 412 202 412C181 412 161 416 142 424C123 432 107 443 93 457C79 471 68 487 60 506C52 525 48 545 48 566Z"/>
<glyph unicode="&#xb1;" horiz-adv-x="604" d="M328 384L328 239L275 239L275 384L87 384L87 434L275 434L275 579L328 579L328 434L517 434L517 384L328 384ZM87 125L87 176L517 176L517 125L87 125Z"/>
<glyph unicode="&#xb2;" horiz-adv-x="337" d="M43 578C42 581 42 585 42 590C41 595 41 599 41 602C41 617 44 632 50 646C56 660 65 672 76 683C87 693 100 701 116 707C131 713 149 716 169 716C208 716 238 705 261 684C283 662 294 636 294 606C294 583 287 562 274 545C261 527 243 511 222 498L148 452C137 445 127 436 118 426C109 416 104 404 102 391L298 391L298 347L40 347L40 352C40 379 46 404 58 427C70 450 90 470 118 487L187 529C203 539 216 551 227 564C237 577 242 591 242 607C242 624 236 640 223 653C210 666 191 673 168 673C145 673 127 666 113 653C98 640 91 621 91 598C91 595 91 592 92 588C92 583 92 579 93 575L43 578Z"/>
<glyph unicode="&#xb3;" horiz-adv-x="354" d="M125 562L239 666L44 666L44 710L306 710L306 668L190 564C191 564 193 564 195 565C196 565 198 565 199 565C214 564 228 562 242 557C256 552 268 546 279 537C290 528 298 517 305 504C311 491 314 475 314 458C314 442 311 427 304 413C297 398 288 386 276 375C264 364 250 356 233 350C216 343 197 340 176 340C135 340 103 350 78 371C53 391 38 416 34 446L80 463C82 438 92 419 111 405C130 390 151 383 175 383C200 383 221 390 238 405C254 419 262 437 262 458C262 481 254 499 237 511C220 522 201 528 179 528C168 528 157 526 147 523L125 562Z"/>
<glyph unicode="&#xb4;" horiz-adv-x="249" d="M90 537L41 537L130 676L208 676L90 537Z"/>
<glyph unicode="&#xb5;" horiz-adv-x="530" d="M251 -13C224 -13 200 -8 180 1C160 10 144 24 132 41L132 -190L72 -190L72 477L132 477L132 186C132 167 134 148 139 131C144 114 151 98 162 85C172 72 185 61 202 53C219 45 239 41 262 41C283 41 302 45 319 53C336 60 350 71 362 84C373 97 382 112 388 130C394 147 397 166 397 186L397 477L457 477L457 91C457 73 458 56 459 40C460 24 462 11 463 0L406 0C405 5 404 14 403 26C402 38 401 52 401 67L401 74C390 51 371 30 346 13C321 -4 289 -13 251 -13Z"/>
<glyph unicode="&#xb6;" horiz-adv-x="614" d="M312 -190L258 -190L258 327L225 327C199 327 175 332 152 342C129 352 108 366 91 383C73 400 59 420 49 443C39 466 34 491 34 517C34 545 40 571 51 595C62 618 77 639 96 656C115 673 138 686 165 695C191 704 220 709 251 709L569 709L569 659L477 659L477 -190L423 -190L423 659L312 659L312 -190Z"/>
<glyph unicode="&#xb7;" horiz-adv-x="243" d="M69 284C69 299 74 311 84 322C94 332 106 337 121 337C136 337 149 332 159 322C169 311 174 299 174 284C174 269 169 257 159 247C149 237 136 232 121 232C106 232 94 237 84 247C74 257 69 269 69 284Z"/>
<glyph unicode="&#xb8;" horiz-adv-x="306" d="M96 -66L144 8L192 8L149 -56C156 -53 164 -52 173 -52C200 -52 221 -59 237 -73C253 -87 261 -105 261 -128C261 -151 252 -171 234 -187C216 -202 189 -210 153 -210C130 -210 108 -205 89 -196C70 -187 55 -176 45 -163L72 -131C79 -140 90 -149 104 -158C117 -166 133 -170 152 -170C171 -170 187 -166 198 -159C209 -152 214 -141 214 -128C214 -115 209 -105 200 -98C190 -91 176 -87 157 -87C151 -87 145 -88 139 -89C132 -90 126 -92 120 -95L96 -66Z"/>
<glyph unicode="&#xb9;" horiz-adv-x="217" d="M114 347L114 633C105 624 93 616 78 609C63 602 46 597 27 596L27 635C52 638 73 647 88 662C103 676 113 692 116 710L165 710L165 347L114 347Z"/>
<glyph unicode="&#xba;" horiz-adv-x="434" d="M217 365C193 365 171 369 151 378C130 387 113 399 98 415C83 430 71 449 62 471C53 492 49 516 49 543C49 569 53 593 62 615C71 637 83 656 98 671C113 686 130 698 151 707C171 716 193 720 217 720C241 720 263 716 284 707C304 698 322 686 337 671C352 656 364 637 373 615C382 593 386 569 386 543C386 516 382 492 373 471C364 449 353 430 338 415C323 399 305 387 284 378C263 369 241 365 217 365ZM99 543C99 522 102 503 109 487C115 470 124 456 135 445C146 434 158 425 172 419C186 413 201 410 217 410C233 410 248 413 262 419C276 425 289 434 300 445C311 456 319 470 326 487C332 503 335 522 335 543C335 564 332 582 326 599C319 616 311 630 300 641C289 652 276 660 262 666C248 672 233 675 217 675C201 675 186 672 172 666C158 660 146 652 135 641C124 630 115 616 109 599C102 582 99 564 99 543Z"/>
<glyph unicode="&#xbb;" horiz-adv-x="465" d="M224 95L356 286L224 477L284 477L417 286L284 95L224 95ZM55 95L187 286L55 477L115 477L248 286L115 95L55 95Z"/>
<glyph unicode="&#xbc;" horiz-adv-x="749" d="M86 0L560 709L615 709L143 0L86 0ZM126 346L126 632C117 623 105 615 90 608C75 601 58 596 39 595L39 634C64 637 85 646 100 661C115 675 125 691 128 709L177 709L177 346L126 346ZM401 133L581 363L642 363L642 127L713 127L713 82L642 82L642 0L591 0L591 82L401 82L401 133ZM591 306L451 127L591 127L591 306Z"/>
<glyph unicode="&#xbd;" horiz-adv-x="766" d="M84 0L558 709L613 709L141 0L84 0ZM124 346L124 632C115 623 103 615 88 608C73 601 56 596 37 595L37 634C62 637 83 646 98 661C113 675 123 691 126 709L175 709L175 346L124 346ZM466 231C465 234 465 238 465 243C464 248 464 252 464 255C464 270 467 285 473 299C479 313 488 325 499 336C510 346 523 354 539 360C554 366 572 369 592 369C631 369 661 358 684 337C706 315 717 289 717 259C717 236 710 215 697 198C684 180 666 164 645 151L571 105C560 98 550 89 541 79C532 69 527 57 525 44L721 44L721 0L463 0L463 5C463 32 469 57 481 80C493 103 513 123 541 140L610 182C626 192 639 204 650 217C660 230 665 244 665 260C665 277 659 293 646 306C633 319 614 326 591 326C568 326 550 319 536 306C521 293 514 274 514 251C514 248 514 245 515 241C515 236 515 232 516 228L466 231Z"/>
<glyph unicode="&#xbe;" horiz-adv-x="828" d="M165 0L639 709L694 709L222 0L165 0ZM480 133L660 363L721 363L721 127L792 127L792 82L721 82L721 0L670 0L670 82L480 82L480 133ZM670 306L530 127L670 127L670 306ZM133 561L247 665L52 665L52 709L314 709L314 667L198 563C199 563 201 563 203 564C204 564 206 564 207 564C222 563 236 561 250 556C264 551 276 545 287 536C298 527 306 516 313 503C319 490 322 474 322 457C322 441 319 426 312 412C305 397 296 385 284 374C272 363 258 355 241 349C224 342 205 339 184 339C143 339 111 349 86 370C61 390 46 415 42 445L88 462C90 437 100 418 119 404C138 389 159 382 183 382C208 382 229 389 246 404C262 418 270 436 270 457C270 480 262 498 245 510C228 521 209 527 187 527C176 527 165 525 155 522L133 561Z"/>
<glyph unicode="&#xbf;" horiz-adv-x="479" d="M278 294C279 289 280 283 281 277C281 270 281 263 281 256C281 225 275 197 264 174C253 150 234 128 209 109L165 75C144 59 127 41 115 20C102 -1 96 -23 96 -48C96 -66 99 -83 105 -99C111 -115 120 -129 132 -142C144 -155 159 -165 176 -172C193 -179 214 -183 237 -183C262 -183 284 -179 303 -171C322 -162 337 -151 349 -138C361 -124 370 -108 376 -91C382 -73 385 -55 385 -36C385 -19 382 -1 377 18L438 9C443 -6 446 -23 446 -42C446 -65 442 -89 434 -113C425 -136 412 -157 395 -176C378 -195 356 -210 330 -222C304 -233 273 -239 237 -239C205 -239 176 -234 151 -223C126 -212 104 -198 87 -181C69 -163 56 -143 47 -120C38 -97 33 -73 33 -49C33 -12 42 20 61 48C79 76 103 101 133 123L178 156C197 169 209 186 216 205C222 224 225 243 225 262C225 268 225 274 225 279C224 284 224 289 223 294L278 294ZM250 487C264 487 276 482 286 473C295 463 300 451 300 438C300 424 295 412 286 403C276 393 264 388 250 388C236 388 224 393 215 403C205 412 200 424 200 438C200 451 205 463 215 473C224 482 236 487 250 487Z"/>
<glyph unicode="&#xc0;" horiz-adv-x="694" d="M516 219L177 219L90 0L22 0L309 709L385 709L672 0L604 0L516 219ZM200 277L493 277L346 646L200 277ZM181 878L265 878L372 759L315 759L181 878Z"/>
<glyph unicode="&#xc1;" horiz-adv-x="694" d="M516 219L177 219L90 0L22 0L309 709L385 709L672 0L604 0L516 219ZM200 277L493 277L346 646L200 277ZM378 759L321 759L428 878L512 878L378 759Z"/>
<glyph unicode="&#xc2;" horiz-adv-x="694" d="M516 219L177 219L90 0L22 0L309 709L385 709L672 0L604 0L516 219ZM200 277L493 277L346 646L200 277ZM190 759L305 878L387 878L503 759L444 759L346 843L249 759L190 759Z"/>
<glyph unicode="&#xc3;" horiz-adv-x="694" d="M516 219L177 219L90 0L22 0L309 709L385 709L672 0L604 0L516 219ZM200 277L493 277L346 646L200 277ZM501 860C501 828 493 804 476 788C459 771 440 763 417 763C404 763 392 765 381 770C370 774 360 779 351 786L330 801C322 806 314 811 306 815C298 819 289 821 280 821C254 821 241 803 241 766L194 766L194 778C194 809 202 832 219 849C236 865 256 873 280 873C294 873 307 870 319 865C331 860 342 853 352 846L370 833C377 828 385 823 392 820C399 817 406 815 415 815C441 815 454 834 454 871L501 871L501 860Z"/>
<glyph unicode="&#xc4;" horiz-adv-x="694" d="M423 819C423 831 427 841 436 850C444 858 454 862 466 862C478 862 488 858 497 850C505 841 509 831 509 819C509 807 505 797 497 789C488 780 478 776 466 776C454 776 444 780 436 789C427 797 423 807 423 819ZM185 819C185 831 189 841 198 850C206 858 216 862 228 862C240 862 250 858 259 850C267 841 271 831 271 819C271 807 267 797 259 789C250 780 240 776 228 776C216 776 206 780 198 789C189 797 185 807 185 819ZM516 219L177 219L90 0L22 0L309 709L385 709L672 0L604 0L516 219ZM200 277L493 277L346 646L200 277Z"/>
<glyph unicode="&#xc5;" horiz-adv-x="694" d="M200 277L493 277L346 646L200 277ZM404 768C404 785 399 800 388 811C377 822 363 828 346 828C330 828 317 822 306 811C295 800 289 785 289 768C289 751 295 737 306 726C317 715 330 709 346 709C363 709 377 715 388 726C399 737 404 751 404 768ZM452 768C452 749 447 731 436 715C425 699 412 687 397 678L672 0L604 0L516 219L177 219L90 0L22 0L297 677C280 686 267 698 257 714C246 730 241 748 241 768C241 783 244 796 250 809C255 822 263 833 273 843C282 852 294 860 307 865C320 870 333 873 347 873C361 873 375 870 388 865C401 860 412 852 421 843C430 833 438 822 444 809C449 796 452 783 452 768Z"/>
<glyph unicode="&#xc6;" horiz-adv-x="979" d="M505 0L505 219L222 219L79 0L0 0L472 709L923 709L923 651L569 651L569 384L892 384L892 326L569 326L569 58L923 58L923 0L505 0ZM260 277L505 277L505 652L260 277Z"/>
<glyph unicode="&#xc7;" horiz-adv-x="746" d="M349 -66L383 -13C340 -11 299 -2 260 16C220 33 185 57 154 88C123 119 99 156 80 201C61 246 52 297 52 354C52 413 62 466 82 512C101 557 127 596 160 627C193 658 230 682 272 698C313 714 356 722 399 722C439 722 476 717 510 706C543 695 573 679 599 660C625 640 647 616 665 589C683 561 696 530 704 496L647 476C633 535 604 581 561 614C518 647 464 664 399 664C363 664 328 657 294 644C260 631 230 611 204 585C177 559 156 527 140 488C124 449 116 405 116 354C116 303 124 259 140 221C156 182 177 150 204 124C230 98 260 78 294 65C328 52 363 45 399 45C432 45 463 50 491 59C518 68 543 82 565 99C586 116 604 136 619 159C634 182 645 208 652 236L707 216C699 185 687 156 671 130C654 103 634 80 611 61C587 41 560 25 530 12C500 -1 467 -8 432 -11L402 -56C409 -53 417 -52 426 -52C453 -52 474 -59 490 -73C506 -87 514 -105 514 -128C514 -151 505 -171 487 -187C469 -202 442 -210 406 -210C383 -210 361 -205 342 -196C323 -187 308 -176 298 -163L325 -131C332 -140 343 -149 357 -158C370 -166 386 -170 405 -170C424 -170 440 -166 451 -159C462 -152 467 -141 467 -128C467 -115 462 -105 453 -98C443 -91 429 -87 410 -87C404 -87 398 -88 392 -89C385 -90 379 -92 373 -95L349 -66Z"/>
<glyph unicode="&#xc8;" horiz-adv-x="575" d="M173 878L257 878L364 759L307 759L173 878ZM101 0L101 709L519 709L519 651L165 651L165 384L488 384L488 326L165 326L165 58L519 58L519 0L101 0Z"/>
<glyph unicode="&#xc9;" horiz-adv-x="575" d="M308 759L251 759L358 878L442 878L308 759ZM101 0L101 709L519 709L519 651L165 651L165 384L488 384L488 326L165 326L165 58L519 58L519 0L101 0Z"/>
<glyph unicode="&#xca;" horiz-adv-x="575" d="M155 759L270 878L352 878L468 759L409 759L311 843L214 759L155 759ZM101 0L101 709L519 709L519 651L165 651L165 384L488 384L488 326L165 326L165 58L519 58L519 0L101 0Z"/>
<glyph unicode="&#xcb;" horiz-adv-x="575" d="M101 0L101 709L519 709L519 651L165 651L165 384L488 384L488 326L165 326L165 58L519 58L519 0L101 0ZM167 819C167 831 171 841 180 850C188 858 198 862 210 862C222 862 232 858 241 850C249 841 253 831 253 819C253 807 249 797 241 789C232 780 222 776 210 776C198 776 188 780 180 789C171 797 167 807 167 819ZM371 819C371 831 375 841 384 850C392 858 402 862 414 862C426 862 436 858 445 850C453 841 457 831 457 819C457 807 453 797 445 789C436 780 426 776 414 776C402 776 392 780 384 789C375 797 371 807 371 819Z"/>
<glyph unicode="&#xcc;" horiz-adv-x="266" d="M101 0L101 709L165 709L165 0L101 0ZM-29 878L55 878L162 759L105 759L-29 878Z"/>
<glyph unicode="&#xcd;" horiz-adv-x="266" d="M101 0L101 709L165 709L165 0L101 0ZM162 759L105 759L212 878L296 878L162 759Z"/>
<glyph unicode="&#xce;" horiz-adv-x="266" d="M101 0L101 709L165 709L165 0L101 0ZM-22 759L93 878L175 878L291 759L232 759L134 843L37 759L-22 759Z"/>
<glyph unicode="&#xcf;" horiz-adv-x="266" d="M101 0L101 709L165 709L165 0L101 0ZM28 819C28 830 32 840 40 848C47 855 57 859 68 859C79 859 89 855 97 848C104 840 108 830 108 819C108 808 104 798 97 791C89 783 79 779 68 779C57 779 47 783 40 791C32 798 28 808 28 819ZM161 819C161 830 165 840 173 848C180 855 190 859 201 859C212 859 222 855 230 848C237 840 241 830 241 819C241 808 237 798 230 791C222 783 212 779 201 779C190 779 180 783 173 791C165 798 161 808 161 819Z"/>
<glyph unicode="&#xd0;" horiz-adv-x="713" d="M102 0L102 339L24 339L24 393L102 393L102 709L323 709C368 709 411 701 452 686C493 671 528 648 559 618C590 588 614 551 633 507C651 462 660 411 660 353C660 295 651 244 633 200C614 156 589 119 558 90C527 60 491 38 450 23C409 8 366 0 321 0L102 0ZM319 56C356 56 391 62 424 75C457 87 487 105 512 130C537 155 558 186 573 223C588 260 595 304 595 353C595 403 588 447 573 484C558 521 539 553 514 578C489 603 459 621 426 634C393 647 358 653 321 653L165 653L165 393L308 393L308 339L165 339L165 56L319 56Z"/>
<glyph unicode="&#xd1;" horiz-adv-x="763" d="M542 860C542 828 534 804 517 788C500 771 481 763 458 763C445 763 433 765 422 770C411 774 401 779 392 786L371 801C363 806 355 811 347 815C339 819 330 821 321 821C295 821 282 803 282 766L235 766L235 778C235 809 243 832 260 849C277 865 297 873 321 873C335 873 348 870 360 865C372 860 383 853 393 846L411 833C418 828 426 823 433 820C440 817 447 815 456 815C482 815 495 834 495 871L542 871L542 860ZM594 0L165 630L165 0L101 0L101 709L189 709L598 104L598 709L662 709L662 0L594 0Z"/>
<glyph unicode="&#xd2;" horiz-adv-x="797" d="M243 878L327 878L434 759L377 759L243 878ZM116 354C116 303 124 259 140 221C155 182 176 150 203 124C229 98 259 78 293 65C327 52 362 45 398 45C434 45 469 52 503 65C537 78 567 98 594 124C620 150 641 182 657 221C673 259 681 303 681 354C681 405 673 449 657 488C641 527 620 559 594 585C567 611 537 631 503 644C469 657 434 664 398 664C362 664 327 657 293 644C259 631 229 611 203 585C176 559 155 527 140 488C124 449 116 405 116 354ZM52 354C52 413 62 466 82 512C101 557 127 596 160 627C192 658 229 682 271 698C312 714 355 722 398 722C441 722 484 714 526 698C567 682 604 658 637 627C669 596 695 557 715 512C735 466 745 413 745 354C745 295 735 242 715 197C695 151 669 113 637 82C604 51 567 27 526 11C484 -5 441 -13 398 -13C355 -13 312 -5 271 11C229 27 192 51 160 82C127 113 101 151 82 197C62 242 52 295 52 354Z"/>
<glyph unicode="&#xd3;" horiz-adv-x="797" d="M419 759L362 759L469 878L553 878L419 759ZM116 354C116 303 124 259 140 221C155 182 176 150 203 124C229 98 259 78 293 65C327 52 362 45 398 45C434 45 469 52 503 65C537 78 567 98 594 124C620 150 641 182 657 221C673 259 681 303 681 354C681 405 673 449 657 488C641 527 620 559 594 585C567 611 537 631 503 644C469 657 434 664 398 664C362 664 327 657 293 644C259 631 229 611 203 585C176 559 155 527 140 488C124 449 116 405 116 354ZM52 354C52 413 62 466 82 512C101 557 127 596 160 627C192 658 229 682 271 698C312 714 355 722 398 722C441 722 484 714 526 698C567 682 604 658 637 627C669 596 695 557 715 512C735 466 745 413 745 354C745 295 735 242 715 197C695 151 669 113 637 82C604 51 567 27 526 11C484 -5 441 -13 398 -13C355 -13 312 -5 271 11C229 27 192 51 160 82C127 113 101 151 82 197C62 242 52 295 52 354Z"/>
<glyph unicode="&#xd4;" horiz-adv-x="797" d="M242 759L357 878L439 878L555 759L496 759L398 843L301 759L242 759ZM116 354C116 303 124 259 140 221C155 182 176 150 203 124C229 98 259 78 293 65C327 52 362 45 398 45C434 45 469 52 503 65C537 78 567 98 594 124C620 150 641 182 657 221C673 259 681 303 681 354C681 405 673 449 657 488C641 527 620 559 594 585C567 611 537 631 503 644C469 657 434 664 398 664C362 664 327 657 293 644C259 631 229 611 203 585C176 559 155 527 140 488C124 449 116 405 116 354ZM52 354C52 413 62 466 82 512C101 557 127 596 160 627C192 658 229 682 271 698C312 714 355 722 398 722C441 722 484 714 526 698C567 682 604 658 637 627C669 596 695 557 715 512C735 466 745 413 745 354C745 295 735 242 715 197C695 151 669 113 637 82C604 51 567 27 526 11C484 -5 441 -13 398 -13C355 -13 312 -5 271 11C229 27 192 51 160 82C127 113 101 151 82 197C62 242 52 295 52 354Z"/>
<glyph unicode="&#xd5;" horiz-adv-x="797" d="M553 860C553 828 545 804 528 788C511 771 492 763 469 763C456 763 444 765 433 770C422 774 412 779 403 786L382 801C374 806 366 811 358 815C350 819 341 821 332 821C306 821 293 803 293 766L246 766L246 778C246 809 254 832 271 849C288 865 308 873 332 873C346 873 359 870 371 865C383 860 394 853 404 846L422 833C429 828 437 823 444 820C451 817 458 815 467 815C493 815 506 834 506 871L553 871L553 860ZM116 354C116 303 124 259 140 221C155 182 176 150 203 124C229 98 259 78 293 65C327 52 362 45 398 45C434 45 469 52 503 65C537 78 567 98 594 124C620 150 641 182 657 221C673 259 681 303 681 354C681 405 673 449 657 488C641 527 620 559 594 585C567 611 537 631 503 644C469 657 434 664 398 664C362 664 327 657 293 644C259 631 229 611 203 585C176 559 155 527 140 488C124 449 116 405 116 354ZM52 354C52 413 62 466 82 512C101 557 127 596 160 627C192 658 229 682 271 698C312 714 355 722 398 722C441 722 484 714 526 698C567 682 604 658 637 627C669 596 695 557 715 512C735 466 745 413 745 354C745 295 735 242 715 197C695 151 669 113 637 82C604 51 567 27 526 11C484 -5 441 -13 398 -13C355 -13 312 -5 271 11C229 27 192 51 160 82C127 113 101 151 82 197C62 242 52 295 52 354Z"/>
<glyph unicode="&#xd6;" horiz-adv-x="797" d="M213 819C213 831 217 841 226 850C234 858 244 862 256 862C268 862 278 858 287 850C295 841 299 831 299 819C299 807 295 797 287 789C278 780 268 776 256 776C244 776 234 780 226 789C217 797 213 807 213 819ZM497 819C497 831 501 841 510 850C518 858 528 862 540 862C552 862 562 858 571 850C579 841 583 831 583 819C583 807 579 797 571 789C562 780 552 776 540 776C528 776 518 780 510 789C501 797 497 807 497 819ZM116 354C116 303 124 259 140 221C155 182 176 150 203 124C229 98 259 78 293 65C327 52 362 45 398 45C434 45 469 52 503 65C537 78 567 98 594 124C620 150 641 182 657 221C673 259 681 303 681 354C681 405 673 449 657 488C641 527 620 559 594 585C567 611 537 631 503 644C469 657 434 664 398 664C362 664 327 657 293 644C259 631 229 611 203 585C176 559 155 527 140 488C124 449 116 405 116 354ZM52 354C52 413 62 466 82 512C101 557 127 596 160 627C192 658 229 682 271 698C312 714 355 722 398 722C441 722 484 714 526 698C567 682 604 658 637 627C669 596 695 557 715 512C735 466 745 413 745 354C745 295 735 242 715 197C695 151 669 113 637 82C604 51 567 27 526 11C484 -5 441 -13 398 -13C355 -13 312 -5 271 11C229 27 192 51 160 82C127 113 101 151 82 197C62 242 52 295 52 354Z"/>
<glyph unicode="&#xd7;" horiz-adv-x="569" d="M285 385L462 569L498 533L319 348L499 162L463 125L284 311L106 126L70 162L248 348L71 532L107 569L285 385Z"/>
<glyph unicode="&#xd8;" horiz-adv-x="797" d="M52 354C52 413 62 466 82 512C101 557 127 596 160 627C192 658 229 682 271 698C312 714 355 722 398 722C435 722 471 716 507 705C542 693 575 676 605 653L679 749L722 717L645 618C675 587 699 549 718 505C736 461 745 411 745 354C745 295 735 242 715 197C695 151 669 113 637 82C604 51 567 27 526 11C484 -5 441 -13 398 -13C363 -13 329 -8 296 3C263 13 231 28 202 47L132 -43L89 -11L160 81C127 112 101 151 82 196C62 241 52 294 52 354ZM116 354C116 305 123 261 138 224C153 187 172 155 197 129L569 607C544 626 517 641 488 650C459 659 429 664 398 664C362 664 327 657 293 644C259 631 229 611 203 585C176 559 155 527 140 488C124 449 116 405 116 354ZM681 354C681 400 674 441 661 477C648 513 630 544 607 570L238 94C261 77 287 65 314 57C341 49 369 45 398 45C434 45 469 52 503 65C537 78 567 98 594 124C620 150 641 182 657 221C673 259 681 303 681 354Z"/>
<glyph unicode="&#xd9;" horiz-adv-x="672" d="M198 878L282 878L389 759L332 759L198 878ZM336 -13C300 -13 267 -8 238 3C208 14 182 30 161 51C139 72 122 98 111 129C99 160 93 195 93 236L93 709L157 709L157 239C157 176 172 128 203 95C233 62 277 45 336 45C395 45 439 62 470 95C500 128 515 176 515 239L515 709L579 709L579 236C579 196 573 161 562 130C550 99 533 73 512 52C491 31 465 15 435 4C405 -8 372 -13 336 -13Z"/>
<glyph unicode="&#xda;" horiz-adv-x="672" d="M340 759L283 759L390 878L474 878L340 759ZM336 -13C300 -13 267 -8 238 3C208 14 182 30 161 51C139 72 122 98 111 129C99 160 93 195 93 236L93 709L157 709L157 239C157 176 172 128 203 95C233 62 277 45 336 45C395 45 439 62 470 95C500 128 515 176 515 239L515 709L579 709L579 236C579 196 573 161 562 130C550 99 533 73 512 52C491 31 465 15 435 4C405 -8 372 -13 336 -13Z"/>
<glyph unicode="&#xdb;" horiz-adv-x="672" d="M180 759L295 878L377 878L493 759L434 759L336 843L239 759L180 759ZM336 -13C300 -13 267 -8 238 3C208 14 182 30 161 51C139 72 122 98 111 129C99 160 93 195 93 236L93 709L157 709L157 239C157 176 172 128 203 95C233 62 277 45 336 45C395 45 439 62 470 95C500 128 515 176 515 239L515 709L579 709L579 236C579 196 573 161 562 130C550 99 533 73 512 52C491 31 465 15 435 4C405 -8 372 -13 336 -13Z"/>
<glyph unicode="&#xdc;" horiz-adv-x="672" d="M195 819C195 831 199 841 208 850C216 858 226 862 238 862C250 862 260 858 269 850C277 841 281 831 281 819C281 807 277 797 269 789C260 780 250 776 238 776C226 776 216 780 208 789C199 797 195 807 195 819ZM394 819C394 831 398 841 407 850C415 858 425 862 437 862C449 862 459 858 468 850C476 841 480 831 480 819C480 807 476 797 468 789C459 780 449 776 437 776C425 776 415 780 407 789C398 797 394 807 394 819ZM336 -13C300 -13 267 -8 238 3C208 14 182 30 161 51C139 72 122 98 111 129C99 160 93 195 93 236L93 709L157 709L157 239C157 176 172 128 203 95C233 62 277 45 336 45C395 45 439 62 470 95C500 128 515 176 515 239L515 709L579 709L579 236C579 196 573 161 562 130C550 99 533 73 512 52C491 31 465 15 435 4C405 -8 372 -13 336 -13Z"/>
<glyph unicode="&#xdd;" horiz-adv-x="616" d="M29 709L104 709L308 362L513 709L587 709L339 303L339 0L277 0L277 303L29 709ZM311 759L254 759L361 878L445 878L311 759Z"/>
<glyph unicode="&#xde;" horiz-adv-x="586" d="M101 0L101 709L165 709L165 563L335 563C368 563 397 558 424 548C451 537 474 523 493 505C512 486 526 465 537 440C547 415 552 387 552 358C552 329 547 302 537 277C526 252 512 230 493 212C474 194 451 180 424 170C397 159 368 154 335 154L165 154L165 0L101 0ZM325 211C376 211 416 225 445 252C474 279 488 314 488 358C488 402 474 438 445 465C416 492 376 506 325 506L165 506L165 211L325 211Z"/>
<glyph unicode="&#xdf;" horiz-adv-x="545" d="M331 343C331 332 335 324 344 318C352 311 362 304 375 297L413 277C440 263 463 244 482 220C501 195 510 166 510 133C510 116 507 98 501 81C494 64 485 48 472 34C459 20 442 9 423 0C404 -9 381 -13 355 -13C327 -13 303 -9 284 1C265 10 249 21 236 35C223 48 214 63 209 80C203 96 200 111 199 126L255 140C255 130 257 119 261 107C264 95 270 84 278 74C286 64 296 56 309 49C322 42 337 39 355 39C371 39 385 42 397 47C409 52 419 59 427 68C434 76 440 85 444 96C448 107 450 117 450 128C450 152 443 172 430 188C417 204 400 217 380 228L342 248C334 252 326 257 317 263C308 268 301 275 294 283C287 290 282 299 278 309C273 318 271 329 271 341C271 360 276 376 285 390C294 403 306 415 321 426L359 452C376 463 390 477 401 493C411 509 416 529 416 552C416 568 413 583 407 597C401 611 393 623 382 634C371 644 357 652 340 659C323 665 305 668 284 668C264 668 245 664 228 657C211 649 196 638 183 623C170 608 159 589 152 567C144 544 140 518 140 489L140 0L80 0L80 492C80 529 85 561 96 590C107 618 121 642 140 662C158 681 180 696 205 707C230 717 256 722 284 722C313 722 340 718 364 709C387 700 407 688 424 673C441 658 454 640 463 620C472 599 476 577 476 553C476 517 468 488 452 466C436 443 418 425 398 412L361 387C352 381 344 375 339 369C334 362 331 354 331 343Z"/>
<glyph unicode="&#xe0;" horiz-adv-x="500" d="M201 -12C176 -12 153 -8 134 -1C115 7 99 17 86 30C73 42 63 56 56 73C49 89 45 106 45 123C45 164 58 196 84 219C109 242 144 257 188 264L315 283C336 286 349 292 356 300C362 308 365 318 365 329C365 361 355 387 335 407C314 427 284 437 245 437C207 437 176 427 153 408C129 388 115 361 111 326L55 338C58 361 64 381 75 400C86 419 99 435 116 448C132 461 151 471 173 478C195 485 219 489 244 489C275 489 302 485 325 476C348 467 366 456 381 441C396 426 407 408 414 388C421 367 425 346 425 323L425 82C425 63 426 47 427 34C428 21 430 10 432 0L373 0C372 5 370 16 369 31C368 46 367 63 367 82C362 71 354 60 344 49C334 38 322 28 308 19C294 10 278 2 261 -4C243 -9 223 -12 201 -12ZM208 39C231 39 252 43 271 50C290 57 307 68 321 81C335 94 346 111 354 130C361 149 365 171 365 195L365 249C364 248 360 246 354 243C347 240 339 238 330 237L197 217C169 213 147 203 131 188C114 173 106 152 106 126C106 104 115 84 132 66C149 48 175 39 208 39ZM112 676L188 676L277 537L230 537L112 676Z"/>
<glyph unicode="&#xe1;" horiz-adv-x="500" d="M201 -12C176 -12 153 -8 134 -1C115 7 99 17 86 30C73 42 63 56 56 73C49 89 45 106 45 123C45 164 58 196 84 219C109 242 144 257 188 264L315 283C336 286 349 292 356 300C362 308 365 318 365 329C365 361 355 387 335 407C314 427 284 437 245 437C207 437 176 427 153 408C129 388 115 361 111 326L55 338C58 361 64 381 75 400C86 419 99 435 116 448C132 461 151 471 173 478C195 485 219 489 244 489C275 489 302 485 325 476C348 467 366 456 381 441C396 426 407 408 414 388C421 367 425 346 425 323L425 82C425 63 426 47 427 34C428 21 430 10 432 0L373 0C372 5 370 16 369 31C368 46 367 63 367 82C362 71 354 60 344 49C334 38 322 28 308 19C294 10 278 2 261 -4C243 -9 223 -12 201 -12ZM208 39C231 39 252 43 271 50C290 57 307 68 321 81C335 94 346 111 354 130C361 149 365 171 365 195L365 249C364 248 360 246 354 243C347 240 339 238 330 237L197 217C169 213 147 203 131 188C114 173 106 152 106 126C106 104 115 84 132 66C149 48 175 39 208 39ZM264 537L215 537L304 676L382 676L264 537Z"/>
<glyph unicode="&#xe2;" horiz-adv-x="500" d="M103 538L213 675L285 675L395 538L341 538L249 637L157 538L103 538ZM201 -12C176 -12 153 -8 134 -1C115 7 99 17 86 30C73 42 63 56 56 73C49 89 45 106 45 123C45 164 58 196 84 219C109 242 144 257 188 264L315 283C336 286 349 292 356 300C362 308 365 318 365 329C365 361 355 387 335 407C314 427 284 437 245 437C207 437 176 427 153 408C129 388 115 361 111 326L55 338C58 361 64 381 75 400C86 419 99 435 116 448C132 461 151 471 173 478C195 485 219 489 244 489C275 489 302 485 325 476C348 467 366 456 381 441C396 426 407 408 414 388C421 367 425 346 425 323L425 82C425 63 426 47 427 34C428 21 430 10 432 0L373 0C372 5 370 16 369 31C368 46 367 63 367 82C362 71 354 60 344 49C334 38 322 28 308 19C294 10 278 2 261 -4C243 -9 223 -12 201 -12ZM208 39C231 39 252 43 271 50C290 57 307 68 321 81C335 94 346 111 354 130C361 149 365 171 365 195L365 249C364 248 360 246 354 243C347 240 339 238 330 237L197 217C169 213 147 203 131 188C114 173 106 152 106 126C106 104 115 84 132 66C149 48 175 39 208 39Z"/>
<glyph unicode="&#xe3;" horiz-adv-x="500" d="M201 -12C176 -12 153 -8 134 -1C115 7 99 17 86 30C73 42 63 56 56 73C49 89 45 106 45 123C45 164 58 196 84 219C109 242 144 257 188 264L315 283C336 286 349 292 356 300C362 308 365 318 365 329C365 361 355 387 335 407C314 427 284 437 245 437C207 437 176 427 153 408C129 388 115 361 111 326L55 338C58 361 64 381 75 400C86 419 99 435 116 448C132 461 151 471 173 478C195 485 219 489 244 489C275 489 302 485 325 476C348 467 366 456 381 441C396 426 407 408 414 388C421 367 425 346 425 323L425 82C425 63 426 47 427 34C428 21 430 10 432 0L373 0C372 5 370 16 369 31C368 46 367 63 367 82C362 71 354 60 344 49C334 38 322 28 308 19C294 10 278 2 261 -4C243 -9 223 -12 201 -12ZM208 39C231 39 252 43 271 50C290 57 307 68 321 81C335 94 346 111 354 130C361 149 365 171 365 195L365 249C364 248 360 246 354 243C347 240 339 238 330 237L197 217C169 213 147 203 131 188C114 173 106 152 106 126C106 104 115 84 132 66C149 48 175 39 208 39ZM401 648C401 616 393 592 377 576C360 559 341 551 318 551C305 551 293 553 283 558C272 562 262 567 253 574L232 589C224 594 216 599 209 603C201 607 192 609 183 609C158 609 145 591 145 554L98 554L98 566C98 597 106 620 123 637C139 653 159 661 183 661C197 661 210 658 222 653C233 648 244 641 254 634L272 621C279 616 286 611 293 608C300 605 307 603 316 603C341 603 354 622 354 659L401 659L401 648Z"/>
<glyph unicode="&#xe4;" horiz-adv-x="500" d="M291 611C291 622 295 632 304 641C312 649 322 653 333 653C344 653 354 649 363 641C371 632 375 622 375 611C375 600 371 590 363 582C354 573 344 569 333 569C322 569 312 573 304 582C295 590 291 600 291 611ZM115 611C115 622 119 632 128 641C136 649 146 653 157 653C168 653 178 649 187 641C195 632 199 622 199 611C199 600 195 590 187 582C178 573 168 569 157 569C146 569 136 573 128 582C119 590 115 600 115 611ZM201 -12C176 -12 153 -8 134 -1C115 7 99 17 86 30C73 42 63 56 56 73C49 89 45 106 45 123C45 164 58 196 84 219C109 242 144 257 188 264L315 283C336 286 349 292 356 300C362 308 365 318 365 329C365 361 355 387 335 407C314 427 284 437 245 437C207 437 176 427 153 408C129 388 115 361 111 326L55 338C58 361 64 381 75 400C86 419 99 435 116 448C132 461 151 471 173 478C195 485 219 489 244 489C275 489 302 485 325 476C348 467 366 456 381 441C396 426 407 408 414 388C421 367 425 346 425 323L425 82C425 63 426 47 427 34C428 21 430 10 432 0L373 0C372 5 370 16 369 31C368 46 367 63 367 82C362 71 354 60 344 49C334 38 322 28 308 19C294 10 278 2 261 -4C243 -9 223 -12 201 -12ZM208 39C231 39 252 43 271 50C290 57 307 68 321 81C335 94 346 111 354 130C361 149 365 171 365 195L365 249C364 248 360 246 354 243C347 240 339 238 330 237L197 217C169 213 147 203 131 188C114 173 106 152 106 126C106 104 115 84 132 66C149 48 175 39 208 39Z"/>
<glyph unicode="&#xe5;" horiz-adv-x="500" d="M201 -12C176 -12 153 -8 134 -1C115 7 99 17 86 30C73 42 63 56 56 73C49 89 45 106 45 123C45 164 58 196 84 219C109 242 144 257 188 264L315 283C336 286 349 292 356 300C362 308 365 318 365 329C365 361 355 387 335 407C314 427 284 437 245 437C207 437 176 427 153 408C129 388 115 361 111 326L55 338C58 361 64 381 75 400C86 419 99 435 116 448C132 461 151 471 173 478C195 485 219 489 244 489C275 489 302 485 325 476C348 467 366 456 381 441C396 426 407 408 414 388C421 367 425 346 425 323L425 82C425 63 426 47 427 34C428 21 430 10 432 0L373 0C372 5 370 16 369 31C368 46 367 63 367 82C362 71 354 60 344 49C334 38 322 28 308 19C294 10 278 2 261 -4C243 -9 223 -12 201 -12ZM208 39C231 39 252 43 271 50C290 57 307 68 321 81C335 94 346 111 354 130C361 149 365 171 365 195L365 249C364 248 360 246 354 243C347 240 339 238 330 237L197 217C169 213 147 203 131 188C114 173 106 152 106 126C106 104 115 84 132 66C149 48 175 39 208 39ZM351 635C351 620 348 607 343 594C337 581 329 570 320 561C311 551 300 543 287 538C274 533 261 530 246 530C232 530 219 533 206 538C193 543 181 551 172 561C163 570 155 581 150 594C144 607 141 620 141 635C141 650 144 663 150 676C155 689 163 700 172 709C181 718 193 726 206 732C219 737 232 740 246 740C261 740 274 737 287 732C300 726 311 718 320 709C329 700 337 689 343 676C348 663 351 650 351 635ZM307 635C307 652 301 667 290 680C278 692 263 698 246 698C229 698 214 692 203 680C191 667 185 652 185 635C185 618 191 603 203 591C214 578 229 572 246 572C263 572 278 578 290 591C301 603 307 618 307 635Z"/>
<glyph unicode="&#xe6;" horiz-adv-x="853" d="M209 38C232 38 253 42 272 49C291 56 308 67 322 80C336 93 347 110 355 130C362 149 366 171 366 195L366 253C364 251 361 249 356 247C351 245 346 243 340 241C334 239 328 237 321 236C314 235 308 234 303 233L196 217C168 213 146 203 131 188C115 173 107 152 107 126C107 103 116 83 133 65C150 47 176 38 209 38ZM746 277C745 299 741 320 734 339C727 358 716 375 703 390C690 404 673 415 654 424C634 432 612 436 587 436C565 436 545 432 526 424C507 415 490 404 476 390C462 375 451 358 443 339C434 320 429 299 428 277L746 277ZM202 -13C177 -13 154 -9 135 -2C116 6 99 16 86 29C73 42 63 56 56 73C49 89 45 106 45 123C45 164 58 196 84 219C110 242 145 257 189 264L316 283C335 286 349 292 356 301C363 309 366 319 366 330C366 362 356 388 335 408C314 428 285 438 246 438C208 438 177 428 154 408C130 388 116 361 113 326L55 339C58 362 64 382 75 401C86 420 99 436 116 449C133 462 152 473 174 480C196 487 220 490 245 490C289 490 325 482 353 465C380 448 400 425 412 397C432 427 457 450 488 466C518 482 551 490 586 490C621 490 653 484 680 472C707 460 731 443 750 422C769 401 783 375 794 346C804 317 809 284 809 249C809 245 809 241 809 238C809 235 809 231 808 227L426 227L426 215C427 188 432 164 441 143C450 122 463 104 479 89C494 74 512 62 532 54C552 45 574 41 597 41C640 41 674 52 700 74C725 96 743 123 753 154L806 135C799 115 790 96 778 78C765 60 750 44 733 31C715 17 695 6 672 -2C649 -9 624 -13 597 -13C554 -13 514 -3 479 19C443 40 415 70 395 110C388 94 380 79 369 64C358 49 344 35 328 24C312 13 294 4 273 -3C252 -10 229 -13 202 -13Z"/>
<glyph unicode="&#xe7;" horiz-adv-x="529" d="M228 -66L263 -12C232 -10 203 -2 176 11C149 24 127 42 108 64C89 86 74 112 63 141C52 170 47 203 47 238C47 275 53 309 65 340C76 371 93 397 114 420C135 442 159 459 188 472C217 484 248 490 281 490C310 490 335 486 358 478C381 470 401 459 418 445C435 431 449 415 460 397C471 379 480 360 485 340L432 318C428 332 422 346 415 360C407 374 397 387 385 398C373 409 358 419 341 426C324 433 304 436 281 436C257 436 235 432 214 423C193 414 174 401 159 384C143 367 130 346 121 321C112 296 107 269 107 238C107 208 112 181 121 157C130 132 142 112 158 95C174 78 193 64 214 55C235 46 257 41 281 41C304 41 324 45 342 52C359 59 374 69 387 80C400 91 410 104 418 118C426 131 432 145 436 158L489 136C484 119 476 102 466 86C456 69 444 54 429 41C414 28 396 16 377 7C357 -2 335 -8 311 -11L281 -56C288 -53 296 -52 305 -52C332 -52 353 -59 369 -73C385 -87 393 -105 393 -128C393 -151 384 -171 366 -187C348 -202 321 -210 285 -210C262 -210 240 -205 221 -196C202 -187 187 -176 177 -163L204 -131C211 -140 222 -149 236 -158C249 -166 265 -170 284 -170C303 -170 319 -166 330 -159C341 -152 346 -141 346 -128C346 -115 341 -105 332 -98C322 -91 308 -87 289 -87C283 -87 277 -88 271 -89C264 -90 258 -92 252 -95L228 -66Z"/>
<glyph unicode="&#xe8;" horiz-adv-x="535" d="M428 277C427 299 423 320 416 339C409 358 398 375 385 390C372 404 355 415 336 424C316 432 294 436 269 436C247 436 227 432 208 424C189 415 172 404 158 390C144 375 133 358 125 339C116 320 111 299 110 277L428 277ZM488 135C481 115 472 96 460 78C447 60 432 44 415 31C397 17 377 6 354 -2C331 -9 306 -13 279 -13C248 -13 218 -7 190 4C161 15 137 32 116 54C95 75 78 102 66 133C53 164 47 200 47 240C47 277 53 311 65 342C77 373 93 399 113 421C133 443 156 460 183 472C210 484 238 490 268 490C303 490 335 484 362 472C389 460 413 443 432 422C451 401 465 375 476 346C486 317 491 284 491 249C491 245 491 241 491 238C491 235 491 231 490 227L108 227L108 223C108 196 113 171 122 149C131 126 143 107 159 91C174 75 192 63 213 54C234 45 256 41 279 41C322 41 356 52 382 74C407 96 425 123 435 154L488 135ZM137 676L213 676L302 537L255 537L137 676Z"/>
<glyph unicode="&#xe9;" horiz-adv-x="535" d="M295 537L246 537L335 676L413 676L295 537ZM428 277C427 299 423 320 416 339C409 358 398 375 385 390C372 404 355 415 336 424C316 432 294 436 269 436C247 436 227 432 208 424C189 415 172 404 158 390C144 375 133 358 125 339C116 320 111 299 110 277L428 277ZM488 135C481 115 472 96 460 78C447 60 432 44 415 31C397 17 377 6 354 -2C331 -9 306 -13 279 -13C248 -13 218 -7 190 4C161 15 137 32 116 54C95 75 78 102 66 133C53 164 47 200 47 240C47 277 53 311 65 342C77 373 93 399 113 421C133 443 156 460 183 472C210 484 238 490 268 490C303 490 335 484 362 472C389 460 413 443 432 422C451 401 465 375 476 346C486 317 491 284 491 249C491 245 491 241 491 238C491 235 491 231 490 227L108 227L108 223C108 196 113 171 122 149C131 126 143 107 159 91C174 75 192 63 213 54C234 45 256 41 279 41C322 41 356 52 382 74C407 96 425 123 435 154L488 135Z"/>
<glyph unicode="&#xea;" horiz-adv-x="535" d="M123 538L233 675L305 675L415 538L361 538L269 637L177 538L123 538ZM428 277C427 299 423 320 416 339C409 358 398 375 385 390C372 404 355 415 336 424C316 432 294 436 269 436C247 436 227 432 208 424C189 415 172 404 158 390C144 375 133 358 125 339C116 320 111 299 110 277L428 277ZM488 135C481 115 472 96 460 78C447 60 432 44 415 31C397 17 377 6 354 -2C331 -9 306 -13 279 -13C248 -13 218 -7 190 4C161 15 137 32 116 54C95 75 78 102 66 133C53 164 47 200 47 240C47 277 53 311 65 342C77 373 93 399 113 421C133 443 156 460 183 472C210 484 238 490 268 490C303 490 335 484 362 472C389 460 413 443 432 422C451 401 465 375 476 346C486 317 491 284 491 249C491 245 491 241 491 238C491 235 491 231 490 227L108 227L108 223C108 196 113 171 122 149C131 126 143 107 159 91C174 75 192 63 213 54C234 45 256 41 279 41C322 41 356 52 382 74C407 96 425 123 435 154L488 135Z"/>
<glyph unicode="&#xeb;" horiz-adv-x="535" d="M316 611C316 622 320 632 329 641C337 649 347 653 358 653C369 653 379 649 388 641C396 632 400 622 400 611C400 600 396 590 388 582C379 573 369 569 358 569C347 569 337 573 329 582C320 590 316 600 316 611ZM140 611C140 622 144 632 153 641C161 649 171 653 182 653C193 653 203 649 212 641C220 632 224 622 224 611C224 600 220 590 212 582C203 573 193 569 182 569C171 569 161 573 153 582C144 590 140 600 140 611ZM428 277C427 299 423 320 416 339C409 358 398 375 385 390C372 404 355 415 336 424C316 432 294 436 269 436C247 436 227 432 208 424C189 415 172 404 158 390C144 375 133 358 125 339C116 320 111 299 110 277L428 277ZM488 135C481 115 472 96 460 78C447 60 432 44 415 31C397 17 377 6 354 -2C331 -9 306 -13 279 -13C248 -13 218 -7 190 4C161 15 137 32 116 54C95 75 78 102 66 133C53 164 47 200 47 240C47 277 53 311 65 342C77 373 93 399 113 421C133 443 156 460 183 472C210 484 238 490 268 490C303 490 335 484 362 472C389 460 413 443 432 422C451 401 465 375 476 346C486 317 491 284 491 249C491 245 491 241 491 238C491 235 491 231 490 227L108 227L108 223C108 196 113 171 122 149C131 126 143 107 159 91C174 75 192 63 213 54C234 45 256 41 279 41C322 41 356 52 382 74C407 96 425 123 435 154L488 135Z"/>
<glyph unicode="&#xec;" horiz-adv-x="220" d="M80 0L80 477L140 477L140 0L80 0ZM-27 676L49 676L138 537L91 537L-27 676Z"/>
<glyph unicode="&#xed;" horiz-adv-x="220" d="M134 537L85 537L174 676L252 676L134 537ZM80 0L80 477L140 477L140 0L80 0Z"/>
<glyph unicode="&#xee;" horiz-adv-x="220" d="M-35 538L75 675L147 675L257 538L203 538L111 637L19 538L-35 538ZM80 0L80 477L140 477L140 0L80 0Z"/>
<glyph unicode="&#xef;" horiz-adv-x="220" d="M80 0L80 477L140 477L140 0L80 0ZM8 610C8 621 12 631 20 639C27 646 37 650 48 650C59 650 69 646 77 639C84 631 88 621 88 610C88 599 84 589 77 582C69 574 59 570 48 570C37 570 27 574 20 582C12 589 8 599 8 610ZM134 610C134 621 138 631 146 639C153 646 163 650 174 650C185 650 195 646 203 639C210 631 214 621 214 610C214 599 210 589 203 582C195 574 185 570 174 570C163 570 153 574 146 582C138 589 134 599 134 610Z"/>
<glyph unicode="&#xf0;" horiz-adv-x="566" d="M374 603C415 563 448 514 474 455C500 396 513 330 513 255C513 217 508 182 498 149C487 116 472 88 452 64C432 40 408 21 379 8C350 -6 317 -13 280 -13C246 -13 215 -7 186 6C157 18 133 35 112 56C91 77 75 103 64 132C53 161 47 193 47 227C47 264 53 297 66 326C79 355 95 379 116 400C137 420 161 436 188 447C215 458 243 463 272 463C306 463 337 457 366 444C394 431 417 412 434 386C423 424 408 459 389 491C370 522 347 551 320 576L187 509L168 550L279 605C236 638 191 660 142 673L161 722C186 715 214 705 245 691C276 676 306 657 336 634L449 691L469 650L374 603ZM280 41C306 41 330 46 351 56C372 65 390 79 405 96C420 113 432 134 441 158C449 181 453 207 453 236C453 263 448 287 439 309C430 330 417 348 401 363C385 378 367 389 346 397C325 405 303 409 280 409C257 409 235 405 214 397C193 388 175 376 159 361C143 346 130 327 121 304C112 281 107 256 107 227C107 199 112 174 121 151C130 128 142 108 158 92C173 75 192 63 213 54C234 45 256 41 280 41Z"/>
<glyph unicode="&#xf1;" horiz-adv-x="537" d="M430 648C430 616 422 592 406 576C389 559 370 551 347 551C334 551 322 553 312 558C301 562 291 567 282 574L261 589C253 594 245 599 238 603C230 607 221 609 212 609C187 609 174 591 174 554L127 554L127 566C127 597 135 620 152 637C168 653 188 661 212 661C226 661 239 658 251 653C262 648 273 641 283 634L301 621C308 616 315 611 322 608C329 605 336 603 345 603C370 603 383 622 383 659L430 659L430 648ZM140 0L80 0L80 477L138 477L138 401C151 426 171 447 198 464C225 481 256 489 293 489C321 489 346 484 367 475C388 466 405 453 420 437C434 421 445 402 452 381C459 359 462 336 462 311L462 0L402 0L402 301C402 320 400 337 395 354C390 370 383 384 372 396C361 408 348 418 332 425C315 432 296 435 273 435C252 435 234 431 218 423C201 415 187 404 176 391C164 377 155 361 149 343C143 324 140 305 140 285L140 0Z"/>
<glyph unicode="&#xf2;" horiz-adv-x="568" d="M144 676L220 676L309 537L262 537L144 676ZM284 -13C251 -13 220 -7 191 6C162 18 137 35 116 57C95 79 78 105 66 136C53 167 47 201 47 238C47 275 53 310 65 341C77 372 94 398 115 420C136 442 162 459 191 471C220 483 251 489 284 489C317 489 348 483 377 471C406 459 431 442 452 420C473 398 490 372 503 341C515 310 521 275 521 238C521 201 515 167 503 136C490 105 473 79 452 57C431 35 406 18 377 6C348 -7 317 -13 284 -13ZM108 238C108 207 113 179 123 155C132 130 145 110 161 93C177 76 196 64 217 55C238 46 261 41 284 41C307 41 330 46 351 55C372 64 391 76 407 93C423 110 436 130 446 155C455 179 460 207 460 238C460 269 455 297 446 322C436 346 423 367 407 384C391 401 372 413 351 422C330 431 307 435 284 435C261 435 238 431 217 422C196 413 177 401 161 384C145 367 132 346 123 322C113 297 108 269 108 238Z"/>
<glyph unicode="&#xf3;" horiz-adv-x="568" d="M297 537L248 537L337 676L415 676L297 537ZM284 -13C251 -13 220 -7 191 6C162 18 137 35 116 57C95 79 78 105 66 136C53 167 47 201 47 238C47 275 53 310 65 341C77 372 94 398 115 420C136 442 162 459 191 471C220 483 251 489 284 489C317 489 348 483 377 471C406 459 431 442 452 420C473 398 490 372 503 341C515 310 521 275 521 238C521 201 515 167 503 136C490 105 473 79 452 57C431 35 406 18 377 6C348 -7 317 -13 284 -13ZM108 238C108 207 113 179 123 155C132 130 145 110 161 93C177 76 196 64 217 55C238 46 261 41 284 41C307 41 330 46 351 55C372 64 391 76 407 93C423 110 436 130 446 155C455 179 460 207 460 238C460 269 455 297 446 322C436 346 423 367 407 384C391 401 372 413 351 422C330 431 307 435 284 435C261 435 238 431 217 422C196 413 177 401 161 384C145 367 132 346 123 322C113 297 108 269 108 238Z"/>
<glyph unicode="&#xf4;" horiz-adv-x="568" d="M135 538L245 675L317 675L427 538L373 538L281 637L189 538L135 538ZM284 -13C251 -13 220 -7 191 6C162 18 137 35 116 57C95 79 78 105 66 136C53 167 47 201 47 238C47 275 53 310 65 341C77 372 94 398 115 420C136 442 162 459 191 471C220 483 251 489 284 489C317 489 348 483 377 471C406 459 431 442 452 420C473 398 490 372 503 341C515 310 521 275 521 238C521 201 515 167 503 136C490 105 473 79 452 57C431 35 406 18 377 6C348 -7 317 -13 284 -13ZM108 238C108 207 113 179 123 155C132 130 145 110 161 93C177 76 196 64 217 55C238 46 261 41 284 41C307 41 330 46 351 55C372 64 391 76 407 93C423 110 436 130 446 155C455 179 460 207 460 238C460 269 455 297 446 322C436 346 423 367 407 384C391 401 372 413 351 422C330 431 307 435 284 435C261 435 238 431 217 422C196 413 177 401 161 384C145 367 132 346 123 322C113 297 108 269 108 238Z"/>
<glyph unicode="&#xf5;" horiz-adv-x="568" d="M284 -13C251 -13 220 -7 191 6C162 18 137 35 116 57C95 79 78 105 66 136C53 167 47 201 47 238C47 275 53 310 65 341C77 372 94 398 115 420C136 442 162 459 191 471C220 483 251 489 284 489C317 489 348 483 377 471C406 459 431 442 452 420C473 398 490 372 503 341C515 310 521 275 521 238C521 201 515 167 503 136C490 105 473 79 452 57C431 35 406 18 377 6C348 -7 317 -13 284 -13ZM108 238C108 207 113 179 123 155C132 130 145 110 161 93C177 76 196 64 217 55C238 46 261 41 284 41C307 41 330 46 351 55C372 64 391 76 407 93C423 110 436 130 446 155C455 179 460 207 460 238C460 269 455 297 446 322C436 346 423 367 407 384C391 401 372 413 351 422C330 431 307 435 284 435C261 435 238 431 217 422C196 413 177 401 161 384C145 367 132 346 123 322C113 297 108 269 108 238ZM434 648C434 616 426 592 410 576C393 559 374 551 351 551C338 551 326 553 316 558C305 562 295 567 286 574L265 589C257 594 249 599 242 603C234 607 225 609 216 609C191 609 178 591 178 554L131 554L131 566C131 597 139 620 156 637C172 653 192 661 216 661C230 661 243 658 255 653C266 648 277 641 287 634L305 621C312 616 319 611 326 608C333 605 340 603 349 603C374 603 387 622 387 659L434 659L434 648Z"/>
<glyph unicode="&#xf6;" horiz-adv-x="568" d="M328 611C328 622 332 632 341 641C349 649 359 653 370 653C381 653 391 649 400 641C408 632 412 622 412 611C412 600 408 590 400 582C391 573 381 569 370 569C359 569 349 573 341 582C332 590 328 600 328 611ZM152 611C152 622 156 632 165 641C173 649 183 653 194 653C205 653 215 649 224 641C232 632 236 622 236 611C236 600 232 590 224 582C215 573 205 569 194 569C183 569 173 573 165 582C156 590 152 600 152 611ZM284 -13C251 -13 220 -7 191 6C162 18 137 35 116 57C95 79 78 105 66 136C53 167 47 201 47 238C47 275 53 310 65 341C77 372 94 398 115 420C136 442 162 459 191 471C220 483 251 489 284 489C317 489 348 483 377 471C406 459 431 442 452 420C473 398 490 372 503 341C515 310 521 275 521 238C521 201 515 167 503 136C490 105 473 79 452 57C431 35 406 18 377 6C348 -7 317 -13 284 -13ZM108 238C108 207 113 179 123 155C132 130 145 110 161 93C177 76 196 64 217 55C238 46 261 41 284 41C307 41 330 46 351 55C372 64 391 76 407 93C423 110 436 130 446 155C455 179 460 207 460 238C460 269 455 297 446 322C436 346 423 367 407 384C391 401 372 413 351 422C330 431 307 435 284 435C261 435 238 431 217 422C196 413 177 401 161 384C145 367 132 346 123 322C113 297 108 269 108 238Z"/>
<glyph unicode="&#xf7;" horiz-adv-x="602" d="M252 170C252 183 257 195 267 204C276 213 287 217 300 217C313 217 325 213 334 204C343 195 348 183 348 170C348 157 343 145 334 136C325 127 313 122 300 122C287 122 276 127 267 136C257 145 252 157 252 170ZM80 322L80 375L522 375L522 322L80 322ZM252 525C252 538 257 550 267 559C276 568 287 573 300 573C313 573 325 568 334 559C343 550 348 538 348 525C348 512 343 501 334 492C325 482 313 477 300 477C287 477 276 482 267 492C257 501 252 512 252 525Z"/>
<glyph unicode="&#xf8;" horiz-adv-x="564" d="M281 490C332 490 377 476 416 447L471 518L510 487L453 414C472 392 488 366 499 337C510 307 516 274 516 238C516 201 510 167 498 136C486 105 469 79 448 57C427 35 402 18 373 6C344 -7 314 -13 281 -13C256 -13 233 -10 211 -3C189 4 169 13 150 26L98 -41L60 -10L113 58C92 80 76 106 65 137C53 167 47 201 47 238C47 275 53 310 65 341C77 372 94 398 115 420C136 442 160 459 189 472C217 484 248 490 281 490ZM107 238C107 210 111 185 118 163C125 140 136 121 149 104L382 403C353 425 319 436 281 436C258 436 236 432 215 423C194 414 175 401 159 384C143 367 130 346 121 322C112 297 107 269 107 238ZM281 41C304 41 327 46 348 55C369 64 388 76 404 93C420 110 433 130 442 155C451 179 456 207 456 238C456 265 453 289 446 311C439 332 429 351 417 368L185 70C214 51 246 41 281 41Z"/>
</font>
</defs>
</svg>
